<?xml version="1.0" encoding="UTF-8"?>
<svg width="44px" height="44px" viewBox="0 0 44 44" version="1.1" xmlns="http://www.w3.org/2000/svg" xmlns:xlink="http://www.w3.org/1999/xlink">
    <!-- Generator: Sketch 54.1 (76490) - https://sketchapp.com -->
    <title>eth2X</title>
    <desc>Created with Sketch.</desc>
    <g id="视觉稿" stroke="none" stroke-width="1" fill="none" fill-rule="evenodd">
        <g id="B端查询页面" transform="translate(-57.000000, -823.000000)" fill-rule="nonzero">
            <g id="eth" transform="translate(56.000000, 822.000000)">
                <g id="编组" transform="translate(0.971487, 0.971487)">
                    <path d="M21.8198613,0.0303876306 C9.78592292,0.0303876306 0.0303876306,9.78592292 0.0303876306,21.8198613 C0.0303876306,33.8537997 9.78592292,43.609335 21.8198613,43.609335 C33.8537997,43.609335 43.609335,33.8537997 43.609335,21.8198613 C43.609335,9.78592292 33.8537997,0.0303876306 21.8198613,0.0303876306 Z" id="路径" fill="#89ACC6"></path>
                    <path d="M22.0024233,17.2426148 L30.1097382,22.1300551 L22.0024233,7.26315789 L22.0024233,17.2426148 Z M22.0024233,27.8421053 L30.2631579,22.7297376 L22.0024233,17.7497211 L22.0024233,27.8421053 Z M21.5759361,27.8421053 L21.5759361,17.7497211 L13.3157895,22.7295522 L21.5759361,27.8421053 Z M21.5759406,7.26334333 L13.4692091,22.1300088 L15.4933851,20.9096298 L21.5759406,17.2425546 L21.5759406,7.26334333 Z" id="形状" fill="#FFFFFF"></path>
                    <path d="M30.6103213,25.1257591 L21.7867156,30.7337457 L21.7867156,37.6207476 L30.6103213,25.1257591 Z M21.309174,30.7326315 L12.4862268,25.1255565 L21.309174,37.6207476 L21.309174,30.7326315 Z" id="形状" fill="#FFFFFF"></path>
                </g>
            </g>
        </g>
    </g>
</svg>