<?xml version="1.0" encoding="UTF-8"?>
<svg width="44px" height="44px" viewBox="0 0 44 44" version="1.1" xmlns="http://www.w3.org/2000/svg" xmlns:xlink="http://www.w3.org/1999/xlink">
    <!-- Generator: Sketch 54.1 (76490) - https://sketchapp.com -->
    <title>火币2X</title>
    <desc>Created with Sketch.</desc>
    <g id="视觉稿" stroke="none" stroke-width="1" fill="none" fill-rule="evenodd">
        <g id="B端查询页面" transform="translate(-61.000000, -886.000000)" fill-rule="nonzero">
            <g id="火币" transform="translate(61.000000, 886.000000)">
                <path d="M21.7894737,0 C9.75553529,0 -5.71986902e-13,9.75553529 -5.71986902e-13,21.7894737 C-5.71986902e-13,33.8234121 9.75553529,43.5789474 21.7894737,43.5789474 C33.8234121,43.5789474 43.5789474,33.8234121 43.5789474,21.7894737 C43.5789474,9.75553529 33.8234121,1.46613184e-15 21.7894737,0 Z" id="路径" fill="#F0F0F0"></path>
                <g id="huobi" transform="translate(12.000000, 7.000000)">
                    <g id="编组" transform="translate(0.082177, 0.051247)">
                        <path d="M12.0787445,8.89798013 C12.0787445,4.75210272 10.1083749,1.18601561 8.60977202,0.0264646885 C8.60977202,0.0264646885 8.49500849,-0.0394003435 8.50334751,0.12627098 C8.37598798,8.13335238 4.3935245,10.3040205 2.19141187,13.2263215 C-2.87226632,19.9697733 1.83659547,27.3630045 6.63307524,28.730594 C9.31523531,29.4952217 6.00692008,27.3777203 5.58950274,22.9049802 C5.07399991,17.4996863 12.080873,13.3750518 12.080873,8.89999761" id="路径" fill="#1D2242"></path>
                        <path d="M14.710783,11.6229233 L14.710783,11.6229233 C14.6836347,11.5943159 14.6388357,11.5935191 14.6107215,11.6211437 C14.6106414,11.6212224 14.6105614,11.6213014 14.6104816,11.6213805 L14.6104816,11.6213805 C14.6056207,11.6261806 14.601449,11.631654 14.5980897,11.6376391 C14.5104717,12.6444247 13.4376252,14.8001397 12.0787446,16.7774258 C7.47009678,23.4909713 10.0958956,26.7256861 11.5736801,28.4587375 C12.4315491,29.4675703 11.5736801,28.4587375 13.7172738,27.4266147 C13.8863576,27.3458559 17.8918263,25.1858388 18.3343481,20.2628727 C18.7517071,15.4947191 15.7711211,12.4893748 14.7107831,11.6165742" id="路径" fill="#2DA9DE"></path>
                    </g>
                </g>
            </g>
        </g>
    </g>
</svg>