<?xml version="1.0" encoding="UTF-8"?>
<svg width="182px" height="31px" viewBox="0 0 182 31" version="1.1" xmlns="http://www.w3.org/2000/svg" xmlns:xlink="http://www.w3.org/1999/xlink">
    <!-- Generator: Sketch 52.2 (67145) - http://www.bohemiancoding.com/sketch -->
    <title>Group 102X</title>
    <desc>Created with Sketch.</desc>
    <defs>
        <polygon id="path-1" points="0 0 31 0 31 31 0 31"></polygon>
    </defs>
    <g id="Page-1" stroke="none" stroke-width="1" fill="none" fill-rule="evenodd">
        <g id="微信绑定EOS账号" transform="translate(-171.000000, -15.000000)">
            <g id="Group-10" transform="translate(171.000000, 15.000000)">
                <g id="Group-18">
                    <g id="Group-3">
                        <mask id="mask-2" fill="white">
                            <use xlink:href="#path-1"></use>
                        </mask>
                        <g id="Clip-2"></g>
                        <path d="M15.5,1.0367334 C7.52499585,1.0367334 1.0367334,7.52456727 1.0367334,15.5 C1.0367334,23.4750041 7.52499585,29.9632666 15.5,29.9632666 C23.4750041,29.9632666 29.9632666,23.4750041 29.9632666,15.5 C29.9632666,7.52456727 23.4750041,1.0367334 15.5,1.0367334" id="Fill-1" stroke="#FFFFFF" mask="url(#mask-2)"></path>
                        <path d="M13.2829622,15.1500543 L13.3348672,9.50007751 C13.6578793,9.29256446 13.9705963,9.11977471 14.2777366,8.97385418 C14.4390282,9.84317677 14.5282533,11.0386503 14.5282533,12.5999587 C14.5282533,13.4787888 14.5042312,14.5221413 14.4729166,15.7362166 C14.0718325,15.5902961 13.6763249,15.4026249 13.2829622,15.1500543 M19.0422727,9.50007751 C19.7170378,10.1498992 20.0799438,11.0998295 20.0799438,12.2998502 C20.0799438,13.3502299 19.7170378,14.2501421 18.9903677,15 C18.2654136,15.7486178 17.3328394,16.0487263 16.1939321,16.0499664 C16.1776313,13.7772438 16.2128066,9.47320829 16.1368795,8.8498424 C16.1274422,8.70516199 16.1021331,8.58032346 16.0691027,8.46457914 C16.1780603,8.45589831 16.2870179,8.45011109 16.3959755,8.45011109 C17.4859806,8.45011109 18.4198417,8.79982432 19.0422727,9.50007751 M16.2925945,17.6501318 C17.9007916,17.6501318 19.1979878,17.0999328 20.3394689,16.0499664 C21.429045,15 22,13.6999432 22,12.1502093 C21.948095,10.600062 21.48095,9.40004134 20.4951839,8.45011109 C19.5094178,7.45016277 18.2641267,7 16.7593105,7 C15.5140194,7 14.3206333,7.40014468 13.1791522,8.15000258 C13.1272472,7.3501266 12.7124361,7 11.9857661,7 C11.6743361,7 11.363335,7.05001809 11,7.15005426 C11.363335,7.94993024 11.570955,9.50007751 11.570955,11.9001188 C11.570955,13.1997623 11.51905,14.8499457 11.467145,16.8998605 C11.363335,18.9001705 11.363335,20.2498321 11.363335,20.9000672 C11.363335,21.3498166 11.41524,21.6499251 11.41524,21.7999793 C11.41524,21.9500336 11.51905,22.0496564 11.6743361,22.1501059 C11.8300511,22.2497287 11.9857661,22.2997468 12.2452911,22.2997468 C12.7124361,22.2997468 13.2310572,22.1501059 13.8020122,21.8499974 C13.4386772,21.1001395 13.2310572,19.8501008 13.2310572,17.999845 C13.2310572,17.6001137 13.2310572,17.199969 13.2829622,16.7502196 C13.6222751,17.0110577 14.0087743,17.2049295 14.4308778,17.3525035 C14.428733,17.4355914 14.4265882,17.5153723 14.4244433,17.6001137 C14.3206333,19.6000103 14.3206333,20.9500853 14.3206333,21.599907 C14.3206333,22.0496564 14.3725383,22.3497649 14.3725383,22.4998191 C14.4244433,22.5998553 14.4763483,22.7499096 14.6320633,22.8499457 C14.7358733,22.9499819 14.9434934,23 15.2030184,23 C15.6697344,23 16.1887845,22.8499457 16.7593105,22.5498372 C16.3964045,21.7999793 16.1887845,20.5499406 16.1887845,18.6996848 C16.1887845,18.3607193 16.195219,18.0155531 16.2265336,17.6455847 C16.2496978,17.645998 16.2694303,17.6501318 16.2925945,17.6501318" id="Fill-4" fill="#FFFFFF" mask="url(#mask-2)"></path>
                    </g>
                    <path d="M163.383781,16.9632689 L161.510137,16.9632689 C161.852821,17.5068986 162.183561,17.963315 162.501945,18.3333487 C162.820329,18.0372387 163.113999,17.580407 163.383781,16.9632689 Z M158.204384,15.8145448 C158.03263,15.4690139 157.860876,15.1238983 157.689946,14.7779521 L157.689946,16.0001846 L159.012494,16.0001846 L159.012494,15.3705874 L158.204384,15.8145448 Z M157.689946,14.0000923 L157.689946,14.5553505 L158.388083,14.1853168 C158.485287,14.3331641 158.632328,14.5682248 158.828795,14.8888376 C158.90211,15.036685 158.963068,15.1479858 159.012494,15.2219095 L159.012494,14.0000923 L157.689946,14.0000923 Z M157.689946,17.1111162 L157.653288,17.7407134 L158.42474,17.3706797 C158.473342,17.5185271 158.620384,17.8146371 158.865452,18.2598403 C158.938767,18.3831849 158.987781,18.4691523 159.012494,18.5185732 L159.012494,17.1111162 L157.689946,17.1111162 Z M158.167315,19.0742467 C158.117889,18.9758202 158.057343,18.8275576 157.984028,18.6294587 C157.934603,18.5314476 157.824219,18.2963869 157.653288,17.9255226 C157.603863,19.0867057 157.396275,20.1112547 157.028877,21 C156.881836,20.8766554 156.636767,20.6669282 156.294083,20.3708181 C156.147041,20.246643 156.049014,20.1602603 156,20.1112547 C156.367397,19.3462692 156.538328,18.3466384 156.514439,17.1111162 L156.037069,17.1111162 L156.037069,16.0001846 L156.514439,16.0001846 L156.514439,12.8887453 L157.506247,12.8887453 C157.603863,12.4439574 157.665233,12.1478474 157.689946,12 L159.049151,12.0739237 C159.024438,12.1233446 158.999725,12.2097273 158.975836,12.3330718 C158.90211,12.457247 158.828795,12.6420562 158.75548,12.8887453 L160.114686,12.8887453 L160.114686,14.8888376 C160.604,14.5682248 160.824356,14.074016 160.775754,13.4070417 L160.775754,12.4074108 L164.228548,12.4074108 L164.228548,14.0000923 C164.203835,14.2467814 164.326164,14.3580822 164.595945,14.3331641 L165,14.3331641 C164.975287,14.4324212 164.950574,14.5802686 164.926685,14.7779521 C164.87726,15.1238983 164.840602,15.3456693 164.816301,15.4445111 L163.934465,15.4445111 C163.322411,15.4690139 163.016384,15.135942 163.016384,14.444465 L163.016384,13.4813806 L161.950849,13.4813806 L161.950849,13.5926815 C161.999863,14.531263 161.669123,15.2588713 160.959453,15.7779982 C160.787699,15.6052328 160.505972,15.3456693 160.114686,14.9997231 L160.114686,19.7408057 L160.114686,19.7781828 C160.677315,19.5559965 161.155096,19.3338102 161.547206,19.1112085 C161.253123,18.8146832 160.885726,18.2718841 160.445014,17.4815652 L161.289781,16.9632689 L160.297973,16.9632689 L160.297973,15.8145448 L164.706329,15.8145448 L164.706329,17.0371926 C164.289506,17.9014351 163.873507,18.5804531 163.457096,19.0742467 C163.824493,19.3213511 164.338932,19.5314937 165,19.7038438 L164.375589,20.8147755 C163.616082,20.5676711 162.979726,20.2595173 162.465288,19.8890683 C161.950849,20.2840201 161.289781,20.6420101 160.482083,20.9634535 L160.040959,20.1482165 C159.918219,20.542753 159.600247,20.7528956 159.085808,20.778229 L158.681754,20.778229 C158.388083,20.8023165 158.154959,20.8147755 157.984028,20.8147755 C157.934603,20.4937474 157.848931,20.1353422 157.726603,19.7408057 L158.094,19.7408057 C158.289643,19.7657238 158.436685,19.7781828 158.535124,19.7781828 C158.877397,19.8031009 159.036795,19.654423 159.012494,19.3338102 L159.012494,18.6672512 L158.167315,19.0742467 Z" id="Fill-6" fill="#FFFFFF"></path>
                    <path d="M175.987578,19.4627172 L179.834372,19.4627172 L179.834372,18.2996636 L175.987578,18.2996636 L175.987578,19.4627172 Z M173.224435,14.0620445 L173.224435,12.8624089 L175.054248,12.8624089 L175.054248,12 L176.436029,12 L176.436029,12.8624089 L178.863357,12.8624089 L178.863357,12 L180.244719,12 L180.244719,12.8624089 L181.963153,12.8624089 L181.963153,14.0620445 L180.244719,14.0620445 L180.244719,14.6999159 L178.863357,14.6999159 L178.863357,14.0620445 L176.436029,14.0620445 L176.436029,14.6999159 L175.054248,14.6999159 L175.054248,14.0620445 L173.224435,14.0620445 Z M173.149484,16.3498879 L173.149484,15.1876752 L176.398344,15.1876752 C176.447753,15.0880209 176.534847,14.9374883 176.660045,14.7373388 C176.759282,14.5376098 176.833814,14.3874977 176.883642,14.2874229 L178.265842,14.474958 C178.240718,14.5249953 178.203452,14.6006821 178.154043,14.6999159 C178.103378,14.7999907 178.004141,14.9622968 177.855076,15.1876752 L182,15.1876752 L182,16.3498879 L177.107658,16.3498879 C176.883642,16.6000748 176.660045,16.8628761 176.436029,17.1374509 L181.215735,17.1374509 L181.215735,21 L179.833954,21 L179.833954,20.5500841 L175.987578,20.5500841 L175.987578,21 L174.605797,21 L174.605797,18.7504205 C174.232716,19.0001869 173.846236,19.2625677 173.448451,19.5375631 C173.398204,19.3121846 173.273844,18.95057 173.074951,18.4501962 C173.049828,18.350542 173.024705,18.2752756 173,18.2248178 C174.045966,17.6247898 174.879641,17.0003738 175.501861,16.3498879 L173.149484,16.3498879 Z" id="Fill-8" fill="#FFFFFF"></path>
                    <path d="M45.3451672,16.0862381 L45.8474843,16.0862381 C47.0830023,16.0862381 47.7007613,15.606266 47.7007613,14.6467394 C47.7007613,13.7181249 47.0639689,13.2536087 45.7895564,13.2536087 L45.3451672,13.2536087 L45.3451672,16.0862381 Z M45.3451672,17.3452773 L45.3451672,21 L44,21 L44,12 L45.5243297,12 C46.2707713,12 46.8347402,12.0522163 47.2158226,12.1574843 C47.6006289,12.2623346 47.9395068,12.4607566 48.2324561,12.7519146 C48.7438762,13.2573683 49,13.8948248 49,14.6638663 C49,15.4876305 48.7264978,16.1409608 48.1803211,16.6226039 C47.6333168,17.1046647 46.8963919,17.3452773 45.968719,17.3452773 L45.3451672,17.3452773 Z" id="Fill-10" fill="#FFFFFF"></path>
                    <path d="M57.3964777,16.1328321 L57.8402062,16.1328321 C59.1628007,16.1328321 59.8238832,15.641604 59.8238832,14.6583124 C59.8238832,13.7372598 59.1808419,13.2765246 57.8939003,13.2765246 L57.3964777,13.2765246 L57.3964777,16.1328321 Z M59.1344502,17.1645781 L62,21 L60.2916667,21 L57.6481959,17.3162072 L57.3964777,17.3162072 L57.3964777,21 L56,21 L56,12 L57.6361684,12 C58.8591065,12 59.742268,12.2238931 60.2856529,12.6708438 C60.8853093,13.1679198 61.1847079,13.8245614 61.1847079,14.6407686 C61.1847079,15.2781955 60.9969931,15.8258145 60.621134,16.2844612 C60.2457045,16.7431078 59.75,17.0367586 59.1344502,17.1645781 Z" id="Fill-11" fill="#FFFFFF"></path>
                    <path d="M69.3103188,16.4800591 C69.3103188,17.4396401 69.6300062,18.228817 70.269381,18.8467839 C70.9051594,19.4651538 71.6392416,19.7745401 72.4720274,19.7745401 C73.3755439,19.7745401 74.1375988,19.4595139 74.758192,18.8302672 C75.3791848,18.1929636 75.6896812,17.4174836 75.6896812,16.5030214 C75.6896812,15.5772794 75.3827813,14.8013965 74.769381,14.1753726 C74.1599769,13.5457231 73.405115,13.2310998 72.5055945,13.2310998 C71.6092709,13.2310998 70.8528106,13.5457231 70.2358139,14.1753726 C69.6188172,14.7973681 69.3103188,15.5655969 69.3103188,16.4800591 M68,16.4635424 C68,15.2417081 68.4439659,14.1922922 69.3326969,13.3152947 C70.2174318,12.4382973 71.2803925,12 72.5223781,12 C73.7491786,12 74.8009502,12.4423258 75.6784921,13.3265745 C76.5596306,14.211226 77,15.273533 77,16.5138982 C77,17.7619176 76.5576325,18.8210017 75.6728976,19.6899423 C74.7845662,20.5637169 73.7116153,21 72.4552438,21 C71.3435308,21 70.3453068,20.6120585 69.4605719,19.8365785 C68.4867241,18.978112 68,17.8537666 68,16.4635424" id="Fill-12" fill="#FFFFFF"></path>
                    <path d="M91,12.6348915 L91,14.1856855 C90.2261576,13.5524044 89.4251338,13.2359651 88.5977525,13.2359651 C87.6859446,13.2359651 86.917456,13.5564303 86.2931105,14.1965556 C85.6646467,14.8334601 85.3508266,15.6124804 85.3508266,16.5336166 C85.3508266,17.4438828 85.6646467,18.2116305 86.2931105,18.8368598 C86.9215744,19.4624916 87.6917103,19.7753075 88.6035183,19.7753075 C89.0746602,19.7753075 89.4749662,19.700425 89.8048479,19.5506598 C89.9885274,19.4757772 90.1792081,19.3743234 90.3764782,19.2471036 C90.5737483,19.1194811 90.7817262,18.9664952 91,18.786938 L91,20.3651085 C90.2335706,20.7882353 89.4292522,21 88.5862211,21 C87.3181738,21 86.2358652,20.5676135 85.3392952,19.7020353 C84.4464317,18.8296131 84,17.777231 84,16.5448893 C84,15.44017 84.3739483,14.4550212 85.1210214,13.5898457 C86.0402424,12.530217 87.2300406,12 88.6900041,12 C89.4864976,12 90.2566335,12.2117647 91,12.6348915" id="Fill-13" fill="#FFFFFF"></path>
                    <polygon id="Fill-14" fill="#FFFFFF" points="99.4406812 15.521049 103.558876 15.521049 103.558876 12 105 12 105 21 103.558876 21 103.558876 16.7976329 99.4406812 16.7976329 99.4406812 21 98 21 98 12 99.4406812 12"></polygon>
                    <path d="M117.929963,17.380628 L116.557147,14.1809249 L115.118161,17.380628 L117.929963,17.380628 Z M118.499714,18.7151841 L114.536379,18.7151841 L113.505156,21 L112,21 L116.581209,11 L121,21 L119.470782,21 L118.499714,18.7151841 Z" id="Fill-15" fill="#FFFFFF"></path>
                    <polygon id="Fill-16" fill="#FFFFFF" points="127 21 128 21 128 12 127 12"></polygon>
                    <polygon id="Fill-17" fill="#FFFFFF" points="136 20.4605707 136 11 142.628559 17.7584903 142.628559 11.6023353 144 11.6023353 144 21 137.371862 14.2587781 137.371862 20.4605707"></polygon>
                </g>
            </g>
        </g>
    </g>
</svg>