<?xml version="1.0" encoding="UTF-8"?>
<svg width="171px" height="141px" viewBox="0 0 171 141" version="1.1" xmlns="http://www.w3.org/2000/svg" xmlns:xlink="http://www.w3.org/1999/xlink">
    <!-- Generator: Sketch 53 (72520) - https://sketchapp.com -->
    <title>分组 42X</title>
    <desc>Created with Sketch.</desc>
    <g id="教程" stroke="none" stroke-width="1" fill="none" fill-rule="evenodd">
        <g id="首页" transform="translate(-61.000000, -379.000000)">
            <g id="分组-4" transform="translate(54.000000, 366.000000)">
                <g id="Scene/Wireframe">
                    <path d="M171.827511,46.5403603 C171.720824,46.4627774 171.467713,46.4352677 171.349962,46.4120267 C170.860512,46.3155394 170.356308,46.2735294 169.857323,46.2735294 C168.318684,46.2758332 166.755061,46.4268657 165.241962,46.6882759 C164.281296,46.8542152 163.119922,47.4126764 162.164266,47.1093917 C160.499384,46.5809473 158.816756,46.6068986 157.237196,47.3613158 C155.793065,48.0511597 154.696761,49.3613278 154.056989,50.776995 C153.960463,50.9907037 153.568861,51.7772381 153.457999,52.3074442 C153.410606,52.415857 153.365092,52.5250151 153.324032,52.6357994 C153.207533,52.9503319 153.103073,53.2704205 153.00599,53.591119 C152.964513,53.7279223 152.860192,54.0299873 152.984068,54.0883947 C152.786145,54.4536779 152.6107,54.8301412 152.464554,55.2188009 C152.039548,56.3491393 151.574873,57.5890424 151.425525,58.787071 C151.370199,59.2306824 151.368111,59.6768686 151.419471,60.1213609 C151.444872,60.3410322 151.434364,60.7828142 151.583294,60.9498376 C151.899387,61.3042795 152.061678,60.8080879 152.026046,60.5717481 C151.753936,58.7704703 152.279366,57.0789604 152.902088,55.3857565 C153.304755,54.2908555 153.966379,53.2891895 154.707548,52.3820458 C155.307373,51.6477527 155.950833,51.0695062 156.773078,50.5826652 C157.778563,49.9873437 158.853571,49.5060588 159.918698,49.0232833 C160.619224,48.7056339 161.320586,48.3965221 162.040668,48.1228476 C162.200803,48.0619332 162.45273,47.9058189 162.630263,47.905209 C163.005719,47.9038539 163.53776,48.1809162 163.900411,48.2839761 C165.093241,48.6231047 166.301312,49.0572978 167.534089,49.2304871 C168.324808,49.341678 169.065629,49.216529 169.805128,48.953086 C169.880707,48.9262539 170.007367,48.857073 170.16256,48.7582819 C170.711582,48.5470803 171.230957,48.2812658 171.683174,47.8978234 C171.943732,47.6768647 172.180141,47.3913326 172.395741,47.1299901 C172.460254,47.0518652 172.488787,46.9622892 172.489761,46.8771852 C172.538616,46.8516404 172.571046,46.8218269 172.578354,46.7869993 C172.632149,46.52979 172.141586,46.525047 171.827511,46.5403603" id="Twisted-Leaf" fill="#89C5CC"></path>
                    <path d="M23.1151455,65.4213872 C22.7267206,65.4213872 22.3394799,65.4291489 21.9515426,65.4492342 C21.6558353,65.4646215 21.20395,65.4036168 20.9537308,65.5870395 C20.6937592,65.7775431 20.7116619,66.1675375 20.7522737,66.4429439 C20.9669663,67.8993635 21.4909498,69.1908116 22.5871217,70.2226492 C24.2749171,71.8114954 26.209797,72.6187866 28.4993863,72.9782787 C30.1076995,73.2308083 31.5924357,72.8801673 32.7763793,71.74198 C33.6414189,73.3397453 34.297687,75.1078609 34.6269705,76.8923851 C34.7894179,77.7729365 34.8390159,78.6428665 34.8104553,79.5394861 C34.792065,80.1137884 34.7602303,80.6867289 34.6983721,81.2583077 C34.671553,81.5066841 34.5442839,81.8826529 34.6420171,82.1173441 C34.7566776,82.3929547 35.143361,82.4196442 35.3169541,82.1846127 C35.4614292,81.9890027 35.4348887,81.6048636 35.4645639,81.3733724 C35.513744,80.9888248 35.5593017,80.6040049 35.5919027,80.217687 C35.6448444,79.5923887 35.6839934,78.9653201 35.6811373,78.3376387 C35.6745196,76.9273811 35.3594468,75.5116087 34.9284595,74.1729091 C34.1016634,71.6046513 32.7601485,69.3221488 30.6737578,67.5312926 C29.3908967,66.4300757 27.9226701,65.9841148 26.2568873,65.7447258 C25.2197872,65.5956863 24.1657597,65.4213872 23.1151455,65.4213872" id="Fill-16" fill="#DDE3E9" transform="translate(28.204954, 73.882738) rotate(-39.000000) translate(-28.204954, -73.882738) "></path>
                    <path d="M31.1439779,68.6453019 C30.8289748,66.1369593 30.4955118,63.6429829 29.8852193,61.1833897 C29.5254944,59.7339829 29.0644836,58.3150785 28.6456172,56.8821485 C28.683164,57.0618945 28.7163919,57.242798 28.7452312,57.4241781 C28.5995022,56.9968046 28.2951571,56.5880186 28.1201011,56.162143 C27.9248438,55.6871776 27.7678298,55.1938292 27.6186875,54.7034085 C27.3275081,53.7462607 27.0527686,52.787479 26.7250873,51.841293 C26.3599288,50.7871233 25.9394603,49.7504516 25.547622,48.7055415 C25.2150645,47.8187262 24.9036141,46.8876553 24.4706763,46.041351 C24.2347374,45.5800709 24.0231796,45.0846118 23.7915597,44.6144125 C23.7140279,44.4570666 23.0487736,42.6993 23.0537892,42.6993 C23.1637825,42.6993 23.5763098,43.4806507 23.6446464,43.595443 C23.844362,43.9306966 24.0140541,44.2795674 24.1855574,44.629119 C24.2596061,44.214069 24.3768441,43.807734 24.5615131,43.4261822 C24.6184951,43.308394 25.0184836,42.4397576 25.1487481,42.4397576 C25.2138106,42.4397576 24.612574,44.0800765 24.5365748,44.2240776 C24.4748559,44.3410487 24.3592201,44.4893392 24.3189565,44.6137997 C24.253894,44.8147885 24.2874005,44.7645413 24.3411085,44.9458533 C24.4395382,45.2781792 24.6573655,45.6036285 24.7944566,45.9227459 C24.8696896,46.0930961 25.0551249,46.6835346 25.2355446,46.9479792 C25.700108,47.8560372 26.0302274,48.9632456 26.3838919,49.9424531 C26.4599608,49.46136 26.5914791,48.9974927 26.7736404,48.5447913 C26.8168297,48.4372841 27.1605328,47.4397617 27.2595198,47.4397617 C27.3709064,47.4397617 26.9443774,49.0373908 26.8864201,49.1754004 C26.7787952,49.4317428 26.6095908,49.6798468 26.5200775,49.9407509 C26.4218567,50.2271191 26.5944049,50.4848912 26.7043286,50.7777956 C27.1087056,51.8553868 27.4632061,52.9437355 27.7871257,54.0467226 C29.6682976,53.2228185 30.0423726,50.7979489 30.1651137,49.0097481 C30.2535124,47.7209553 30.0540058,46.4085368 29.7412318,45.1583485 C29.3238283,43.4898422 28.6215845,41.8790044 27.8764996,40.3281501 C27.0083254,38.5210895 25.8144203,36.9071198 24.3748936,35.4923686 C23.6220069,34.752414 22.7645603,34.1111155 21.8936693,33.5101918 C21.4682548,33.2166065 21.0312071,32.9729281 20.5346,32.8095907 C20.3107124,32.7360582 20.0809036,32.6828152 19.848587,32.642032 C19.6720683,32.611053 19.3119254,32.4473752 19.1655694,32.4891116 C17.9704801,32.8197354 17.072143,33.369663 16.375681,34.3919687 C15.7163478,35.3596697 15.3070945,36.5165806 15.0795845,37.6514999 C14.8263003,38.9153053 14.7652083,40.1895277 14.9826176,41.4614353 C15.1484784,42.4318597 15.4345726,43.3832201 15.7210847,44.3252528 C16.7400732,47.6758145 18.526159,51.267944 21.7310129,53.1059154 C22.7683916,53.7009157 23.9194557,54.0486971 25.1011005,54.233073 C25.3795321,54.2765116 25.657685,54.3178396 25.9394603,54.3337035 C26.1294235,54.344461 26.7539266,54.2182984 26.891366,54.3002054 C27.0797967,54.4124786 27.1880485,55.0494196 27.2701778,55.280366 C27.8941933,57.0356815 28.4522407,58.810878 28.9586002,60.6019385 C29.497282,62.5075189 29.9252042,64.4316187 30.2816551,66.3771654 C30.4332356,67.2046781 30.5809151,68.0308291 30.7066516,68.8628354 C30.7359785,69.0564029 30.7056764,69.6652245 30.8945947,69.8361875 C31.0140618,69.9443075 31.182918,69.8999837 31.2539713,69.7676253 C31.3775484,69.5374959 31.1762306,68.9021208 31.1439779,68.6453019" id="Leaf" fill="#C1DEE2" transform="translate(23.071677, 51.189649) rotate(-37.000000) translate(-23.071677, -51.189649) "></path>
                    <path d="M169.873123,55.7628374 C169.190933,55.6138063 168.437691,55.6252125 167.742798,55.6375065 C164.016089,55.6881853 160.356525,57.4525851 157.974793,60.2718137 C155.947207,62.6718838 155.389674,65.6558526 154.989112,68.6722639 C154.949398,68.9717605 154.932368,69.2693446 154.909963,69.5694558 C154.905147,69.6338629 154.897958,69.6913034 154.890281,69.7453972 C154.73275,69.8862322 154.650111,70.050426 154.743359,70.2308069 C154.396331,70.9902372 154.102768,71.7689281 153.850873,72.5720705 C153.109495,74.9360781 152.355345,77.3450272 152.81991,79.8308824 C152.928444,78.462897 153.156748,77.06404 153.429791,75.7185255 C153.445495,75.6412779 153.462456,75.5646451 153.480114,75.4882854 C153.481929,75.480226 153.483604,75.4721666 153.485419,75.4641754 C153.582087,75.0521201 153.70772,74.6524272 153.860505,74.2590179 C153.86211,74.254715 153.863645,74.2504803 153.865321,74.2462457 C153.885492,74.1944742 153.906919,74.1429758 153.928067,74.0914774 C153.97183,73.9848607 154.016779,73.878449 154.06445,73.7725836 C154.080573,73.7365211 154.096067,73.7001171 154.110934,73.6634399 C154.333375,73.1182674 154.427321,72.5039752 154.62659,71.9398836 C154.674261,71.8116157 154.724095,71.683826 154.776303,71.5567193 C154.779374,71.5492745 154.782515,71.5418298 154.785656,71.5343851 C154.926784,71.1923375 155.082709,70.8544563 155.247568,70.5201267 C155.337187,70.4527826 155.385067,70.2857203 155.462332,70.1338889 C155.478315,70.1039734 155.603251,69.9044684 155.640452,69.7895191 C155.737539,69.6016935 155.834277,69.4137995 155.932062,69.2263154 C155.92913,69.2274082 155.926199,69.228501 155.923267,69.2295938 C156.021122,69.0495544 156.119255,68.8702663 156.216621,68.6917295 C156.238049,68.6525252 156.259686,68.6132525 156.281253,68.5739116 C156.316221,68.5112803 156.351189,68.4487173 156.386087,68.3862909 C156.712525,67.802119 157.058645,67.2296265 157.418097,66.6642372 C157.546382,66.4624783 157.852858,66.1731585 157.911627,65.9466067 C157.913791,65.9381374 157.914279,65.9303512 157.915605,65.9222235 C158.69558,64.8267561 159.59351,63.8163225 160.670329,63.0157072 C160.540159,63.1564056 160.263486,63.6338926 160.190339,63.7284201 C159.966502,64.0178765 159.723471,64.2873209 159.479533,64.5600437 C159.042677,65.0485952 158.616152,65.5526509 158.237157,66.0856659 C157.544079,67.0604468 156.946133,68.0863163 156.380922,69.1328124 C156.375548,69.1389594 156.369685,69.1447649 156.36459,69.1510486 C156.080518,69.5012238 155.9017,70.0304823 155.697197,70.4310632 C156.506486,70.0562315 157.401345,69.8120582 158.231922,69.4792312 C159.060196,69.1474286 159.865926,68.7779244 160.643807,68.344013 C161.677701,67.7673542 162.750192,67.1162481 163.727062,66.3794252 C164.846527,65.6850168 165.787242,64.7292234 166.61761,63.7262345 C167.600064,62.539518 168.500438,61.3424198 169.057273,59.9014899 C169.330805,59.1934214 169.545988,58.4550959 169.673575,57.7081646 C169.679159,57.6755854 169.686278,57.6402742 169.694026,57.6035969 C169.824545,57.345627 169.941245,57.0818515 170.039169,56.8119973 C170.194675,56.384028 170.561944,55.9132345 169.873123,55.7628374" id="Fill-10" fill="#69A1AC"></path>
                    <path d="M22.3981982,61.7071829 C22.3152021,61.4033157 22.265367,61.0891357 22.2884111,60.7712289 C22.2942658,60.6908715 22.361665,60.1071829 22.4269096,60.1071829 C22.5788506,60.1071829 22.3695805,61.6136029 22.3981982,61.7071829 M19.7539142,63.0219633 C19.7631217,63.025655 19.9304144,63.3472001 19.9852931,63.4405605 C20.1018757,63.6391588 20.2262001,63.8329419 20.3539142,64.0219633 C20.1142898,63.71053 19.8993105,63.4100646 19.7539142,63.0219633 M28.7289607,53.4554378 C28.8712878,53.3353837 28.7934218,53.035456 28.6246053,53.2010497 C28.4883132,53.3352279 28.4842543,53.3219347 28.3129278,53.3133668 C28.1738051,53.3064086 28.025817,53.2632058 27.886,53.2460181 C27.5894363,53.2095657 27.2945283,53.1941435 26.9961488,53.214966 C26.3565582,53.259519 25.7342178,53.4118714 25.141945,53.6488122 C24.1083782,54.062355 23.065038,54.5982368 22.2427989,55.3444728 C20.9354194,56.530994 19.8855103,58.1551518 19.2660004,59.7746363 C18.8822781,60.7775971 18.6757036,61.7842448 19.0244983,62.8273967 C19.1987622,63.348739 19.4746043,63.8448451 19.8749359,64.2365269 C19.9796117,64.338874 20.1175595,64.4181658 20.2155061,64.5256018 C20.3661111,64.6907801 20.3316108,64.637867 20.2337176,64.8735615 C20.1267987,65.1309093 20.0208412,65.3885688 19.9155779,65.6465917 C19.6400562,66.3222077 19.368807,67.0054569 19.168748,67.7065169 C19.102845,67.9372265 19.0521627,68.171467 19.0154193,68.408252 C18.9875414,68.5872946 18.8257211,69.2684668 18.9665528,69.4515078 C19.200845,69.7561607 19.3006609,69.2883547 19.3081912,69.1283171 C19.3147601,68.9881155 19.3269901,68.8476023 19.3445073,68.7082315 C19.3886206,68.3573121 19.4684092,68.0128315 19.5720703,67.6743744 C19.6840628,67.308604 19.8213163,66.9496878 19.9577152,66.591966 C20.0849818,66.25839 20.2181764,65.9269949 20.353988,65.5966903 C20.4293973,65.4131819 20.5057145,65.2300371 20.5820317,65.0468922 C20.6080938,64.9843208 20.6214987,64.8536217 20.6904993,64.9072618 C20.8413179,64.5162031 21.0868789,64.1448246 21.2904626,63.7777041 C21.5398688,63.3280723 21.7943485,62.8793752 22.0809786,62.4509814 C22.2877133,62.1420185 22.5054497,61.8395465 22.743694,61.5524967 C22.8829235,61.384774 23.0317661,61.2271251 23.1899013,61.0760189 C23.2767929,60.9930403 23.5734634,60.637084 23.6931463,60.637084 C23.6417163,60.637084 23.4090797,61.0891563 23.372817,61.1425368 C23.2279264,61.3561625 23.0706457,61.5596625 22.9101072,61.7623837 C22.6122084,62.1385914 22.3357788,62.5284557 22.0857318,62.9362867 C22.1578833,62.9792299 22.4579183,62.7813898 22.5473734,62.7432238 C22.7480199,62.6577008 22.954274,62.5845883 23.1656016,62.5281961 C23.5378416,62.4288087 23.9928075,62.3156089 24.3602944,62.3156089 C24.251987,62.3156089 24.0006048,62.4923668 23.8878647,62.5403988 C23.7071921,62.617302 23.5219266,62.6874547 23.3340976,62.7460279 C23.1606882,62.8000834 22.9841279,62.841313 22.8063927,62.8792713 C22.6285506,62.9171777 22.3072065,62.9186316 22.1453863,63.0133456 C22.135613,63.0190575 22.1457601,63.1107598 22.107468,63.135321 C22.0689089,63.16009 21.9584652,63.1519894 21.949493,63.1587918 C21.8169926,63.258283 21.7243332,63.5465791 21.644598,63.6883905 C21.437703,64.0560822 21.2361487,64.4266299 21.0326183,64.7960871 C20.9695458,64.9105332 20.8856449,64.9888384 20.9411338,65.0816311 C21.0003611,65.1805511 21.2801553,65.2419282 21.3894774,65.2779653 C21.7954166,65.4118838 22.2067498,65.456229 22.6299926,65.3859205 C23.4227516,65.2543387 24.1108348,64.9112082 24.7311992,64.4254875 C27.1073401,62.5650639 29.0562328,60.2240085 29.651176,57.2515784 C29.8974312,56.0209716 30.1627523,54.1017153 28.7289607,53.4554378" id="Leave-the-Leaf!" fill="#89C5CC" transform="translate(24.346074, 61.352332) scale(-1, 1) rotate(-302.000000) translate(-24.346074, -61.352332) "></path>
                    <g id="Background-Shape-2" opacity="0.6" stroke-width="1" transform="translate(9.855405, 83.182353)" fill="#DDE3E9">
                        <path d="M167.216211,33.9589352 C169.654737,49.1371353 110.51633,59.0373558 59.6145316,52.1282306 C8.71273339,45.2191054 -14.6385982,18.2381922 9.65089133,3.86170106 C33.9403808,-10.5147901 164.777685,18.7807351 167.216211,33.9589352 Z" id="Background-Shape"></path>
                    </g>
                    <g id="Mobile3" stroke-width="1" transform="translate(39.062838, 22.544118)">
                        <rect id="Container" fill="#F2F2F2" x="0" y="0" width="31.8" height="60.4" rx="1.6"></rect>
                        <circle id="Touch" fill="#FFFFFF" cx="15.8" cy="53.6" r="3"></circle>
                        <g id="Camera" transform="translate(12.800000, 3.200000)" fill="#FFFFFF">
                            <circle id="Lens" cx="0.4" cy="0.4" r="1"></circle>
                            <rect id="Sensor" x="1.8" y="0" width="4.2" height="1" rx="0.4"></rect>
                        </g>
                        <g id="Rows" transform="translate(2.800000, 5.600000)">
                            <g id="Row">
                                <rect id="Background" fill="#FFFFFF" x="0" y="0" width="26.2" height="10.8" rx="0.8"></rect>
                                <g id="Text" transform="translate(7.800000, 3.240000)" fill="#DDE3E9">
                                    <rect id="Name" x="0" y="0" width="14.6" height="1.62" rx="0.6"></rect>
                                    <rect id="Name" x="0" y="2.7" width="9.8" height="1.62" rx="0.6"></rect>
                                </g>
                                <circle id="Avatar" fill="#C5CFD6" cx="4.2" cy="5.4" r="2.4"></circle>
                            </g>
                            <g id="Row" transform="translate(0.000000, 12.400000)">
                                <rect id="Background" fill="#FFFFFF" x="0" y="0" width="26.2" height="8.4" rx="0.8"></rect>
                                <g id="Text" transform="translate(7.800000, 2.520000)" fill="#DDE3E9">
                                    <rect id="Name" x="0" y="0" width="14.6" height="1.26" rx="0.6"></rect>
                                    <rect id="Name" x="0" y="2.1" width="9.8" height="1.26" rx="0.6"></rect>
                                </g>
                                <circle id="Avatar" fill="#C5CFD6" cx="4.2" cy="4.2" r="2.4"></circle>
                            </g>
                            <g id="Row" transform="translate(0.000000, 22.400000)">
                                <rect id="Background" fill="#FFFFFF" x="0" y="0" width="26.2" height="8.4" rx="0.8"></rect>
                                <g id="Text" transform="translate(7.800000, 2.520000)" fill="#DDE3E9">
                                    <rect id="Name" x="0" y="0" width="14.6" height="1.26" rx="0.6"></rect>
                                    <rect id="Name" x="0" y="2.1" width="9.8" height="1.26" rx="0.6"></rect>
                                </g>
                                <circle id="Avatar" fill="#AFB9C5" cx="4.2" cy="4.2" r="2.4"></circle>
                            </g>
                            <g id="Row" transform="translate(0.000000, 32.400000)">
                                <rect id="Background" fill="#FFFFFF" x="0" y="0" width="26.2" height="8.4" rx="0.8"></rect>
                                <g id="Text" transform="translate(7.800000, 2.520000)" fill="#DDE3E9">
                                    <rect id="Name" x="0" y="0" width="14.6" height="1.26" rx="0.6"></rect>
                                    <rect id="Name" x="0" y="2.1" width="9.8" height="1.26" rx="0.6"></rect>
                                </g>
                                <circle id="Avatar" fill="#C5CFD6" cx="4.2" cy="4.2" r="2.4"></circle>
                            </g>
                        </g>
                    </g>
                    <g id="Mobile3" stroke-width="1" transform="translate(44.876351, 28.585294)">
                        <g id="Group" transform="translate(0.000000, 43.600000)" fill="#89C5CC">
                            <path d="M2.42797259,0 C2.16300743,0 1.89885008,0.00532045252 1.63421754,0.0190882902 C1.43249998,0.029635854 1.12424513,-0.012181036 0.953557383,0.113549658 C0.776216995,0.244134098 0.788429342,0.511463502 0.816132838,0.700246225 C0.962585966,1.6985778 1.32002284,2.58382643 2.06777963,3.29111992 C3.21911411,4.38022589 4.53899798,4.93359962 6.10084789,5.18002058 C7.19796335,5.35312197 8.21078035,5.11276819 9.01841091,4.33257517 C9.60850012,5.42779499 10.0561753,6.63978474 10.280797,7.86302211 C10.3916109,8.46661345 10.4254444,9.06292417 10.4059616,9.67752977 C10.3934167,10.0711966 10.3717005,10.46393 10.3295038,10.85573 C10.311209,11.0259845 10.2243921,11.2836997 10.291061,11.4445734 C10.3692771,11.6334961 10.6330543,11.651791 10.7514713,11.490684 C10.8500254,11.3565993 10.8319207,11.0932835 10.8521637,10.9346034 C10.8857121,10.6710076 10.9167894,10.4072252 10.9390282,10.142416 C10.9751426,9.71379286 11.0018482,9.2839563 10.9998999,8.8536997 C10.9953856,7.88701082 10.7804578,6.91654161 10.4864586,5.99890356 C9.92245723,4.23844049 9.00733901,2.67385409 7.58410161,1.44627634 C6.70899427,0.691425475 5.70743925,0.385732808 4.57112073,0.221638851 C3.86365993,0.119476829 3.14465205,0 2.42797259,0" id="Fill-16"></path>
                            <path d="M6.51425349,7 C3.65447391,7 1.72840911,9.30483251 0.817736297,11.7003191 C0.474448474,12.6032661 0.393988927,13.5947748 0.261684957,14.5428897 C0.219207187,14.8471471 0.234943164,15.3107882 0.111443848,15.5818406 C0.0666244142,15.6801363 -0.0361277663,15.7154791 0.0130003273,15.8493906 C0.0427394497,15.9304925 0.101093696,15.9801635 0.188718733,15.9962656 C0.368605298,16.0293796 0.622956753,15.8334704 0.777178691,15.7561438 C2.05638246,15.1146061 2.89685221,14.1226425 3.58249119,12.908979 C4.00750305,12.1567278 4.43874375,11.3758203 4.69122187,10.5499724 C4.84544381,10.0454847 4.93522317,9.51416011 4.98795743,8.99079561 C5.00870456,8.78469752 5.02879603,8.57368693 5.02757837,8.36631523 C5.0263607,8.16058103 4.93063351,8.05182347 4.86183545,7.8727442 C5.8160632,7.51153809 6.8931346,7.4131059 7.85972632,7.78741204 C8.75372649,8.1336077 9.49636156,8.8026191 9.91219411,9.64311356 C10.0202384,9.8615839 10.1035548,10.0920626 10.1642507,10.3271354 C10.2039653,10.4811063 10.2058855,10.6808818 10.2795074,10.8200696 C10.4580358,11.1575319 10.8336386,10.9319203 10.797577,10.6177924 C10.6970259,9.74150027 10.1957227,8.86175119 9.5549968,8.25250869 C8.74688884,7.48415538 7.65150563,7 6.51425349,7" id="Fill-18"></path>
                        </g>
                        <rect id="Container" fill="#DDE3E9" x="9.6" y="0" width="31.8" height="60.4" rx="1.6"></rect>
                        <circle id="Touch" fill="#FFFFFF" cx="25.4" cy="53.6" r="3"></circle>
                        <g id="Camera" transform="translate(22.400000, 3.200000)" fill="#FFFFFF">
                            <circle id="Lens" cx="0.4" cy="0.4" r="1"></circle>
                            <rect id="Sensor" x="1.8" y="0" width="4.2" height="1" rx="0.4"></rect>
                        </g>
                        <g id="Rows" transform="translate(12.400000, 5.600000)">
                            <g id="Row">
                                <rect id="Container" fill="#FFFFFF" x="0" y="0" width="26.2" height="10.8" rx="0.8"></rect>
                                <g id="Text-Stuff" transform="translate(1.800000, 3.240000)" fill="#DDE3E9">
                                    <rect id="Label" x="0" y="0" width="14.6" height="1.62" rx="0.6"></rect>
                                    <rect id="Label" x="0" y="2.7" width="9.8" height="1.62" rx="0.6"></rect>
                                </g>
                                <g id="Check" transform="translate(22.000000, 4.000000)">
                                    <circle id="Background" fill="#DDE3E9" cx="1.4" cy="1.4" r="1.4"></circle>
                                    <circle id="Indicator" fill="#F2F2F2" cx="1.4" cy="1.4" r="1"></circle>
                                </g>
                            </g>
                            <g id="Row" transform="translate(0.000000, 12.400000)">
                                <rect id="Background" fill="#FFFFFF" x="0" y="0" width="26.2" height="8.4" rx="0.8"></rect>
                                <g id="Text" transform="translate(7.800000, 2.520000)" fill="#DDE3E9">
                                    <rect id="Name" x="0" y="0" width="14.6" height="1.26" rx="0.6"></rect>
                                    <rect id="Name" x="0" y="2.1" width="9.8" height="1.26" rx="0.6"></rect>
                                </g>
                                <circle id="Avatar" fill="#C5CFD6" cx="4.2" cy="4.2" r="2.4"></circle>
                            </g>
                            <g id="Row" transform="translate(0.000000, 22.400000)">
                                <rect id="Container" fill="#FFFFFF" x="0" y="0" width="26.2" height="8.4" rx="0.8"></rect>
                                <g id="Text-Stuff" transform="translate(1.800000, 2.520000)">
                                    <rect id="Label" fill="#DDE3E9" x="0" y="0" width="14.6" height="1.26" rx="0.6"></rect>
                                    <rect id="Label" fill="#AFB9C5" x="0" y="2.1" width="9.8" height="1.26" rx="0.6"></rect>
                                </g>
                                <g id="Check" transform="translate(22.000000, 2.800000)">
                                    <circle id="Background" fill="#DDE3E9" cx="1.4" cy="1.4" r="1.4"></circle>
                                    <circle id="Indicator" fill="#F2F2F2" cx="1.4" cy="1.4" r="1"></circle>
                                </g>
                            </g>
                            <g id="Row" transform="translate(0.000000, 32.400000)">
                                <rect id="Background" fill="#FFFFFF" x="0" y="0" width="26.2" height="8.4" rx="0.8"></rect>
                                <g id="Text" transform="translate(7.800000, 2.520000)" fill="#DDE3E9">
                                    <rect id="Name" x="0" y="0" width="14.6" height="1.26" rx="0.6"></rect>
                                    <rect id="Name" x="0" y="2.1" width="9.8" height="1.26" rx="0.6"></rect>
                                </g>
                                <circle id="Avatar" fill="#C5CFD6" cx="4.2" cy="4.2" r="2.4"></circle>
                            </g>
                        </g>
                    </g>
                    <g id="Web" stroke-width="1" transform="translate(77.057432, 35.105882)">
                        <rect id="Container" fill="#F2F2F2" x="0" y="0" width="67" height="69.2" rx="1.6"></rect>
                        <rect id="Background" fill="#FFFFFF" x="49.8" y="8.6" width="14" height="16.2" rx="1.6"></rect>
                        <g id="Profile-Info" transform="translate(51.800000, 11.600000)" fill="#DDE3E9">
                            <circle id="Avatar" cx="5" cy="3.2" r="3.2"></circle>
                            <rect id="Name" x="0" y="7.2" width="10" height="1.2" rx="0.6"></rect>
                            <rect id="Name" x="1.6" y="9.2" width="6.8" height="1.2" rx="0.6"></rect>
                        </g>
                        <path d="M1.6,0 L65.4,-2.22044605e-16 C66.2836556,-3.84369505e-16 67,0.7163444 67,1.6 L67,5.4 L0,5.4 L2.22044605e-16,1.6 C1.13828005e-16,0.7163444 0.7163444,-5.97197047e-17 1.6,-2.22044605e-16 Z" id="Header" fill="#C5CFD6"></path>
                        <g id="Buttons" transform="translate(1.800000, 2.000000)" fill="#F2F2F2">
                            <circle id="buttons" cx="0.8" cy="0.8" r="1"></circle>
                            <circle id="buttons" cx="3.2" cy="0.8" r="1"></circle>
                            <circle id="buttons" cx="5.6" cy="0.8" r="1"></circle>
                        </g>
                        <g id="Components" transform="translate(49.800000, 26.400000)">
                            <rect id="Background" fill="#FFFFFF" x="0" y="0" width="14" height="38.8" rx="1.6"></rect>
                            <g id="Rows" transform="translate(3.600000, 3.600000)">
                                <rect id="Data" fill="#DDE3E9" x="0" y="0" width="6.8" height="5.2" rx="0.8"></rect>
                                <rect id="Data" fill="#AFB9C5" x="0" y="6.8" width="6.8" height="5" rx="0.8"></rect>
                                <rect id="Data" fill="#DDE3E9" x="0" y="13.4" width="6.8" height="5" rx="0.8"></rect>
                                <rect id="Data" fill="#DDE3E9" x="0" y="26.6" width="6.8" height="5" rx="0.8"></rect>
                                <rect id="Data" fill="#C5CFD6" x="0" y="20" width="6.8" height="5" rx="0.8"></rect>
                            </g>
                        </g>
                        <g id="Rows" transform="translate(3.200000, 8.800000)">
                            <g id="Row">
                                <rect id="Container" fill="#FFFFFF" x="0" y="0" width="45" height="9.4" rx="0.8"></rect>
                                <g id="Text-Stuff" transform="translate(1.800000, 2.820000)" fill="#DDE3E9">
                                    <rect id="Label" x="0" y="0" width="33.4" height="1.41" rx="0.6"></rect>
                                    <rect id="Label" x="0" y="2.35" width="22.4191781" height="1.41" rx="0.6"></rect>
                                </g>
                                <g id="Check" transform="translate(38.790840, 3.300000)">
                                    <circle id="Background" fill="#DDE3E9" cx="1.4" cy="1.4" r="1.4"></circle>
                                    <circle id="Indicator" fill="#F2F2F2" cx="1.4" cy="1.4" r="1"></circle>
                                </g>
                            </g>
                            <g id="Row" transform="translate(0.000000, 11.000000)">
                                <rect id="Container" fill="#FFFFFF" x="0" y="0" width="45" height="7.8" rx="0.8"></rect>
                                <g id="Text-Stuff" transform="translate(1.800000, 2.340000)" fill="#DDE3E9">
                                    <rect id="Label" x="0" y="0" width="33.4" height="1.17" rx="0.585"></rect>
                                    <rect id="Label" x="0" y="1.95" width="22.4191781" height="1.17" rx="0.585"></rect>
                                </g>
                                <g id="Check" transform="translate(38.790840, 2.500000)">
                                    <circle id="Background" fill="#DDE3E9" cx="1.4" cy="1.4" r="1.4"></circle>
                                    <circle id="Indicator" fill="#F2F2F2" cx="1.4" cy="1.4" r="1"></circle>
                                </g>
                            </g>
                            <g id="Row" transform="translate(0.000000, 20.400000)">
                                <rect id="Container" fill="#FFFFFF" x="0" y="0" width="45" height="7.8" rx="0.8"></rect>
                                <g id="Text-Stuff" transform="translate(1.800000, 2.340000)" fill="#DDE3E9">
                                    <rect id="Label" x="0" y="0" width="33.4" height="1.17" rx="0.585"></rect>
                                    <rect id="Label" x="0" y="1.95" width="22.4191781" height="1.17" rx="0.585"></rect>
                                </g>
                                <g id="Check" transform="translate(38.790840, 2.500000)">
                                    <circle id="Background" fill="#DDE3E9" cx="1.4" cy="1.4" r="1.4"></circle>
                                    <circle id="Indicator" fill="#AFB9C5" cx="1.4" cy="1.4" r="1"></circle>
                                </g>
                            </g>
                            <g id="Row" transform="translate(0.000000, 48.600000)">
                                <rect id="Container" fill="#FFFFFF" x="0" y="0" width="45" height="7.8" rx="0.8"></rect>
                                <g id="Text-Stuff" transform="translate(1.800000, 2.340000)" fill="#DDE3E9">
                                    <rect id="Label" x="0" y="0" width="33.4" height="1.17" rx="0.585"></rect>
                                    <rect id="Label" x="0" y="1.95" width="22.4191781" height="1.17" rx="0.585"></rect>
                                </g>
                                <g id="Check" transform="translate(38.790840, 2.500000)">
                                    <circle id="Background" fill="#DDE3E9" cx="1.4" cy="1.4" r="1.4"></circle>
                                    <circle id="Indicator" fill="#F2F2F2" cx="1.4" cy="1.4" r="1"></circle>
                                </g>
                            </g>
                            <g id="Row" transform="translate(0.000000, 39.200000)">
                                <rect id="Container" fill="#FFFFFF" x="0" y="0" width="45" height="7.8" rx="0.8"></rect>
                                <g id="Text-Stuff" transform="translate(1.800000, 2.340000)" fill="#DDE3E9">
                                    <rect id="Label" x="0" y="0" width="33.4" height="1.17" rx="0.585"></rect>
                                    <rect id="Label" x="0" y="1.95" width="22.4191781" height="1.17" rx="0.585"></rect>
                                </g>
                                <g id="Check" transform="translate(38.790840, 2.500000)">
                                    <circle id="Background" fill="#DDE3E9" cx="1.4" cy="1.4" r="1.4"></circle>
                                    <circle id="Indicator" fill="#F2F2F2" cx="1.4" cy="1.4" r="1"></circle>
                                </g>
                            </g>
                            <g id="Row" transform="translate(0.000000, 29.800000)">
                                <rect id="Container" fill="#FFFFFF" x="0" y="0" width="45" height="7.8" rx="0.8"></rect>
                                <g id="Text-Stuff" transform="translate(1.800000, 2.340000)" fill="#DDE3E9">
                                    <rect id="Label" x="0" y="0" width="33.4" height="1.17" rx="0.585"></rect>
                                    <rect id="Label" x="0" y="1.95" width="22.4191781" height="1.17" rx="0.585"></rect>
                                </g>
                                <g id="Check" transform="translate(38.790840, 2.500000)">
                                    <circle id="Background" fill="#DDE3E9" cx="1.4" cy="1.4" r="1.4"></circle>
                                    <circle id="Indicator" fill="#F2F2F2" cx="1.4" cy="1.4" r="1"></circle>
                                </g>
                            </g>
                        </g>
                    </g>
                    <path d="M170.536299,72.5456968 C169.747436,72.0107676 168.6984,71.8705882 167.754378,71.8705882 C164.067205,71.8705882 160.601435,73.2385979 157.607416,75.276962 C155.966843,76.3938589 154.499226,77.8161828 153.203532,79.2970708 C152.455655,80.1519057 151.788791,81.0766864 151.31667,82.1051969 C150.998082,82.7993946 150.779412,83.5226944 150.631196,84.2687571 C150.450559,85.1779782 150.307069,86.1056402 150.242155,87.0299886 C150.216603,87.3939796 150.005097,89.3254442 150.610296,89.3581479 C150.606825,89.4057628 150.606013,89.4511446 150.609706,89.4918442 C149.295622,91.5465601 148.483718,93.9546058 147.730819,96.2376715 C147.075771,98.2243867 146.492063,100.227886 146.113139,102.283178 C145.614284,104.989087 145.286613,107.735696 145.130789,110.480503 C145.097335,111.070395 145.074368,111.660575 145.054576,112.251259 C145.037813,112.755069 145.020827,113.258879 145.004285,113.762689 C144.985822,114.327297 144.88642,114.977337 144.976222,115.538631 C145.054355,116.027458 145.47744,115.953478 145.496124,115.467029 C145.518722,114.879586 145.51503,114.290991 145.54073,113.703117 C145.574922,112.922909 145.610148,112.142702 145.648329,111.362711 C145.914114,105.944338 146.911234,100.605636 148.751423,95.4874308 C149.496125,93.416219 150.349459,91.4555083 151.446202,89.5395311 C152.410459,87.8549292 153.570344,86.2240651 154.755928,84.7051429 C155.90828,83.2290812 157.106346,81.7871639 158.51828,80.5365707 C159.664059,79.5217468 160.92438,78.6376657 162.219927,77.8150302 C163.865448,76.7702399 165.507793,75.7508058 167.290232,74.9487722 C168.216751,74.5319077 169.160773,74.1586963 170.09453,73.758688 C170.262538,73.6867254 170.442658,73.6169238 170.604241,73.5335798 C171.143271,73.2555981 170.96581,72.8369328 170.536299,72.5456968" id="Fill-1" fill="#C1DEE2"></path>
                    <path d="M158.364818,92.0529412 C156.86936,92.0529412 155.538636,92.2472584 154.160736,92.8415645 C152.971332,93.3544858 151.887396,94.0335082 150.835003,94.7727703 C149.354691,95.812483 148.188701,97.0225802 147.372536,98.6259352 C146.884935,99.5837871 146.527259,100.93918 146.854711,101.983924 C147.240457,103.214419 148.299589,104.240669 149.694511,104.023847 C150.557088,103.889906 151.347825,103.31892 152.003425,102.781522 C152.7877,102.138603 153.415509,101.36555 153.933889,100.506964 C154.779513,99.1064249 155.276424,97.5231272 155.994764,96.0596289 C156.335626,95.3650366 156.665024,94.6654811 157.07328,94.0053601 C157.275394,93.6784611 157.490569,93.3546897 157.797178,93.1117592 C157.961217,92.9818291 158.652877,92.7569161 158.388372,92.4651004 C162.26646,92.5160253 165.702039,95.4944228 166.446503,99.1810786 C166.515842,99.5247033 166.570036,99.8711155 166.627286,100.216848 C166.663415,100.435166 166.648824,101.240243 166.84399,101.379692 C167.27441,101.687349 167.093488,100.75275 167.075006,100.618197 C167.027275,100.270424 166.976347,99.9229244 166.922918,99.5760362 C166.632219,97.6892283 165.792222,95.9352061 164.391394,94.5896035 C162.789495,93.0509076 160.628154,92.0529412 158.364818,92.0529412" id="Fill-20" fill="#89C5CC" transform="translate(156.928378, 98.052941) scale(-1, 1) translate(-156.928378, -98.052941) "></path>
                    <g id="Plant" stroke-width="1" transform="translate(13.000000, 88.600000)">
                        <path d="M1.9875712,7.14727403 C5.72086948,13.4103697 10.0689752,19.4747683 12.680167,26.3225438 C12.5749425,25.5153995 12.4633696,24.7090913 12.3384867,23.9039305 C11.6759326,19.6357779 10.8524855,15.3987697 9.98718285,11.1669558 C9.5465193,9.0123216 9.08046473,6.86549585 8.60245694,4.71885367 C8.34536951,3.56589142 8.09143421,2.41222667 7.82904939,1.26036234 C7.76549406,0.981180821 7.71088701,0.493885861 7.63131884,0 C10.1689827,8.3273356 12.6161462,16.6609503 14.4061595,25.1884781 C14.6409854,26.3076251 14.8409573,27.4247837 15.0047616,28.5399985 C15.060797,28.285591 15.1159129,28.0311403 15.1762396,27.77743 C15.9005123,24.7359692 16.9869446,21.718716 18.2805325,18.8748911 C18.8989442,17.5149058 19.6092773,16.1847035 20.4456302,14.9452259 C20.9671643,14.1726047 22.1971038,13.2541766 22.6728721,12.4629 C20.0709156,17.2351955 19.1313974,23.2063267 17.6290267,28.3946668 C17.2623272,29.6607701 16.8933496,30.9248181 16.5318168,32.1910928 C18.7974554,27.6474511 22.3126432,23.9142972 27.2,22.2965133 C21.284043,26.2053885 17.735594,33.0508062 15.3444267,40.0519513 C15.3365476,40.1349809 15.3271798,40.2180116 15.3190818,40.3011727 C16.0227129,38.9657669 16.9090421,37.7578965 18.1102987,36.9119215 C20.6813185,35.1008957 23.5334195,35.6284784 26.0274013,37.1819707 C24.0700454,35.9377407 20.5325327,37.0707317 18.8856007,38.3353387 C17.706576,39.2406008 16.6989658,40.4550786 15.8239642,41.6399201 C15.6143034,41.9239352 15.3282639,42.2553156 15.0260799,42.6088968 C14.6024057,45.3590564 13.9119823,48.0903676 12.9344921,50.8 C13.0958036,50.0222519 12.9791721,48.7783754 13.023906,48.1986636 C13.0287752,48.1358998 13.0327249,48.0730928 13.0375503,48.0105041 C12.8889658,48.6037697 12.7454127,49.1902917 12.6071963,49.7673565 C12.8819509,48.6661849 13.0312784,47.5166536 13.147848,46.3552413 C13.177871,45.8561131 13.2071496,45.3569854 13.238092,44.8579003 C13.2282852,43.9106809 13.1892717,42.9597185 13.1232857,42.0072433 C12.8893112,41.0815412 12.6273434,40.2083781 12.4113,39.482236 C11.6317012,36.8620857 10.4888348,34.3519152 9.08216911,32.0101686 C7.79874037,29.8732027 6.26247673,27.9375213 4.4889567,26.1869197 C3.53286909,25.2434809 2.53227693,24.3449339 1.54577664,23.4339035 C1.18905251,23.1045559 0.551443904,22.2947706 0,21.8726465 C4.01609749,24.0867533 8.14977065,26.4820988 11.0795217,30.0495213 C10.736042,28.7305287 10.3629739,27.4302015 9.9683342,26.1559304 C7.96622946,19.6908924 5.43826714,12.9905052 1.9875712,7.14727403 Z" id="Fill-19" fill="#DDE3E9"></path>
                        <path d="M6,42.6 C6,49.7797017 6.56856235,55.6 14.2,55.6 C21.8314377,55.6 22.4,49.7797017 22.4,42.6" id="Base" fill="#C5CFD6"></path>
                    </g>
                    <g id="Graph" stroke-width="1" transform="translate(133.039189, 13.004412)">
                        <rect id="Value" fill="#DDE3E9" x="0" y="6.4" width="1.2" height="5" rx="0.6"></rect>
                        <rect id="Value" fill="#DDE3E9" x="2.8" y="3.2" width="1.2" height="8.2" rx="0.6"></rect>
                        <rect id="Value" fill="#DDE3E9" x="5.6" y="1.6" width="1.2" height="9.8" rx="0.6"></rect>
                        <rect id="Value" fill="#DDE3E9" x="8.4" y="3.2" width="1.2" height="8.2" rx="0.6"></rect>
                        <rect id="Value" fill="#C5CFD6" x="11.2" y="0" width="1.2" height="11.4" rx="0.6"></rect>
                    </g>
                    <g id="Pie-Chart" stroke-width="1" transform="translate(12.129730, 83.182353) scale(-1, 1) translate(-12.129730, -83.182353) translate(8.129730, 79.182353)">
                        <path d="M8,4.0512776 C8,1.82348005 6.1996,0 4,0 L4,4.0512776 L6.7336,7 C7.5112,6.27907515 8,5.22148913 8,4.0512776 Z" id="Value" fill="#F2F2F2"></path>
                        <path d="M4.10584398,4 L0.0664,4 C0.0664,5.0442 0.492359368,6.0226 1.16573468,6.7336 C1.90636673,7.5112 2.96106556,8 4.10584398,8 C5.16034083,8 6.12556597,7.5782 6.8664,6.9114 L4.10584398,4 Z" id="Value" fill="#AFB9C5"></path>
                        <path d="M0,4 C0,1.8004 1.8004,0 4,0 L4,4 L0,4 Z M6,0 L4.4,3.6 L8,2 C7.644,1.0668 6.8446,0.356 6,0 Z" id="Value" fill="#C5CFD6"></path>
                    </g>
                    <g id="Chart" stroke-width="1" transform="translate(163.563514, 77.647059)">
                        <path d="M7.55329456,7.4358 C7.16897879,7.8438 6.62455653,8.1 6.019041,8.1 C4.85556038,8.1 3.91237665,7.1598 3.91237665,6 C3.91237665,4.8402 4.85556038,3.9 6.019041,3.9 L6.019041,0 C2.70917036,0 0,2.7006 0,6 C0,9.2994 2.70917036,12 6.019041,12 C7.757641,12 9.32891165,11.2668 10.4,10.1004 L7.55329456,7.4358 Z" id="Value" fill="#F2F2F2"></path>
                        <path d="M6,0 L6,3.9 C7.1598,3.9 8.1,4.8402 8.1,6 L12,6 C12,2.7006 9.2994,0 6,0 Z" id="Value" fill="#AFB9C5"></path>
                        <path d="M8.0193927,6 C8.0193927,6.68139668 7.69849451,7.28708262 7.2,7.67815302 L9.6523603,10.8 C11.0798673,9.6823507 12,7.9498569 12,6 L8.0193927,6 Z" id="Value" fill="#C5CFD6"></path>
                    </g>
                    <g id="Chart" stroke-width="1" transform="translate(117.202703, 15.382353)">
                        <path d="M5.81022658,5.70078 C5.51459907,6.01358 5.09581272,6.21 4.63003154,6.21 C3.73504645,6.21 3.0095205,5.48918 3.0095205,4.6 C3.0095205,3.71082 3.73504645,2.99 4.63003154,2.99 L4.63003154,0 C2.0839772,0 0,2.07046 0,4.6 C0,7.12954 2.0839772,9.2 4.63003154,9.2 C5.96741615,9.2 7.17608589,8.63788 8,7.74364 L5.81022658,5.70078 Z" id="Value" fill="#F2F2F2"></path>
                        <path d="M4.6,0 L4.6,2.99 C5.48918,2.99 6.21,3.71082 6.21,4.6 L9.2,4.6 C9.2,2.07046 7.12954,0 4.6,0 Z" id="Value" fill="#AFB9C5"></path>
                        <path d="M6.21454453,4.6 C6.21454453,5.11104751 5.97387089,5.56531196 5.6,5.85861477 L7.43927022,8.2 C8.50990048,7.36176302 9.2,6.06239267 9.2,4.6 L6.21454453,4.6 Z" id="Value" fill="#C5CFD6"></path>
                    </g>
                    <g id="Image" stroke-width="1" transform="translate(21.708784, 14.263235)">
                        <path d="M9.6014,10.3972596 C9.6006,10.3992596 9.5998,10.4012596 9.5986,10.4036596 C9.5998,10.4016596 9.6014,10.3936596 9.6014,10.3972596" id="Fill-35" fill="#C5CFD6"></path>
                        <path d="M9.59953728,10.400299 C9.59953728,10.400699 9.59913728,10.401499 9.59913728,10.402299 C9.59913728,10.400299 9.60273728,10.394299 9.59953728,10.400299" id="Fill-37" fill="#C5CFD6"></path>
                        <path d="M9.61342861,10.3664603 C9.61062861,10.3744603 9.60702861,10.3820603 9.60382861,10.3900603 C9.60542861,10.3860603 9.60702861,10.3828603 9.60862861,10.3788603 C9.56702861,10.4828603 9.59342861,10.4152603 9.61342861,10.3664603" id="Fill-39" fill="#C5CFD6"></path>
                        <path d="M9.60447503,10.39055 C9.60287503,10.39415 9.60127503,10.39815 9.59967503,10.40175 C9.58807503,10.42415 9.60447503,10.39055 9.60447503,10.39055" id="Fill-41" fill="#C5CFD6"></path>
                        <polygon id="Fill-43" fill="#C5CFD6" points="9.6 10.4002 9.6 10.4002 9.6 10.3998"></polygon>
                        <path d="M9.5998,10.4004 C9.5998,10.4 9.5998,10.4 9.6002,10.3996 C9.5998,10.4 9.5998,10.4 9.5998,10.4004" id="Fill-45" fill="#C5CFD6"></path>
                        <path d="M9.59790235,10.4032702 C9.59550235,10.4080702 9.60910235,10.3848702 9.59790235,10.4032702" id="Fill-47" fill="#C5CFD6"></path>
                        <path d="M9.5996,10.4004 L9.6004,10.3996 C9.6,10.4 9.6,10.4004 9.5996,10.4004" id="Fill-49" fill="#C5CFD6"></path>
                        <rect id="Photo-Background" fill="#DDE3E9" x="0" y="0" width="19" height="12.6" rx="0.8"></rect>
                        <g id="icons8-night_landscape" transform="translate(1.600000, 3.600000)">
                            <polygon id="Mountains" fill="#AFB9C5" points="5.6 0 0 9 11.2 9"></polygon>
                            <polygon id="Mountains" fill="#C5CFD6" points="11.1 2.4 6.2 9 16 9"></polygon>
                        </g>
                        <circle id="Sun" fill="#FFFFFF" cx="14.8" cy="4.2" r="1.8"></circle>
                    </g>
                    <g id="Image" stroke-width="1" transform="translate(151.874324, 117.570588) scale(-1, 1) translate(-151.874324, -117.570588) translate(137.674324, 108.170588)">
                        <path d="M14.2014,15.3972596 C14.2006,15.3992596 14.1998,15.4012596 14.1986,15.4036596 C14.1998,15.4016596 14.2014,15.3936596 14.2014,15.3972596" id="Fill-35" fill="#C5CFD6"></path>
                        <path d="M14.1995373,15.400299 C14.1995373,15.400699 14.1991373,15.401499 14.1991373,15.402299 C14.1991373,15.400299 14.2027373,15.394299 14.1995373,15.400299" id="Fill-37" fill="#C5CFD6"></path>
                        <path d="M14.2134286,15.3664603 C14.2106286,15.3744603 14.2070286,15.3820603 14.2038286,15.3900603 C14.2054286,15.3860603 14.2070286,15.3828603 14.2086286,15.3788603 C14.1670286,15.4828603 14.1934286,15.4152603 14.2134286,15.3664603" id="Fill-39" fill="#C5CFD6"></path>
                        <path d="M14.204475,15.39055 C14.202875,15.39415 14.201275,15.39815 14.199675,15.40175 C14.188075,15.42415 14.204475,15.39055 14.204475,15.39055" id="Fill-41" fill="#C5CFD6"></path>
                        <polygon id="Fill-43" fill="#C5CFD6" points="14.2 15.4002 14.2 15.4002 14.2 15.3998"></polygon>
                        <path d="M14.1998,15.4004 C14.1998,15.4 14.1998,15.4 14.2002,15.3996 C14.1998,15.4 14.1998,15.4 14.1998,15.4004" id="Fill-45" fill="#C5CFD6"></path>
                        <path d="M14.1979023,15.4032702 C14.1955023,15.4080702 14.2091023,15.3848702 14.1979023,15.4032702" id="Fill-47" fill="#C5CFD6"></path>
                        <path d="M14.1996,15.4004 L14.2004,15.3996 C14.2,15.4 14.2,15.4004 14.1996,15.4004" id="Fill-49" fill="#C5CFD6"></path>
                        <rect id="Photo-Background" fill="#DDE3E9" x="0" y="0" width="28.4" height="18.8" rx="0.8"></rect>
                        <g id="icons8-night_landscape" transform="translate(2.200000, 5.400000)">
                            <polygon id="Mountains" fill="#AFB9C5" points="8.34515873 0 0.13415873 13.4 16.5561587 13.4"></polygon>
                            <polygon id="Mountains" fill="#C5CFD6" points="16.8111587 3.58928571 9.55215873 13.4 24.0701587 13.4"></polygon>
                        </g>
                        <circle id="Sun" fill="#FFFFFF" cx="22.1" cy="6.3" r="2.7"></circle>
                    </g>
                </g>
                <g id="Group-2" transform="translate(22.376068, 57.800000)">
                    <g id="Group" transform="translate(0.000000, 14.200000)">
                        <g id="Head/Front/Rad" transform="translate(16.607571, 0.000000)">
                            <g id="Head" stroke-width="1" transform="translate(12.400000, 6.790476)" fill="#B28B67">
                                <path d="M1.89726289,7.55498015 C0.839150332,6.37020615 0.122997619,4.91824927 0.242667158,3.2912899 C0.587468421,-1.39643308 7.42818111,-0.36519375 8.75884135,2.00076626 C10.0895016,4.36672627 9.93138457,10.36818 8.21162476,10.7910431 C7.52578712,10.9596802 6.06474923,10.5465869 4.57775332,9.6916106 L5.51111111,15.9904762 L0,15.9904762 L1.89726289,7.55498015 Z"></path>
                            </g>
                            <path d="M21.9081864,8.52132499 C22.0861902,8.35305617 22.183287,8.11288077 22.2672798,7.8848242 C22.3545063,7.64791827 22.43926,7.40857113 22.4971714,7.16198755 C22.6128887,6.66929993 22.6139878,6.10270045 22.2455313,5.72012864 C21.9500348,5.4133432 21.5066527,5.27574202 21.0974469,5.24583725 C20.8248191,5.22589347 20.544815,5.26231539 20.2834736,5.34427015 C20.0241824,5.42557102 19.8006737,5.58760605 19.5493083,5.68817501 C19.5397128,5.15723456 19.4443702,4.6016859 19.1619989,4.14834092 C18.89028,3.71214978 18.4570641,3.46737531 17.9636964,3.40261797 C17.4573091,3.33616051 16.9572626,3.44919705 16.5039256,3.68305148 C16.3904276,3.74161862 16.2779863,3.8029757 16.1703851,3.87241929 C16.0802842,3.9305723 15.9866113,4.00060438 15.8808912,4.02425356 C15.7630392,4.0506491 15.7046205,3.98571739 15.6280251,3.90369724 C15.5382201,3.80753117 15.4370441,3.72283005 15.3299713,3.64774118 C14.8565344,3.3157808 14.2353599,3.17929124 13.6868706,3.3782713 C13.4341525,3.4699473 13.1884092,3.62563955 13.0169574,3.8401823 C12.864126,4.03142461 12.7551088,4.33478801 12.5441757,4.46802988 C12.4546666,4.52459175 12.3914501,4.44965545 12.3099513,4.3942706 C12.187534,4.31105164 12.0707811,4.21922307 11.9468844,4.13827095 C11.7728541,4.02453692 11.5844304,3.93946526 11.3826491,3.89493505 C11.0872583,3.82974178 10.6790458,3.84502111 10.594588,4.2140791 C10.5628847,4.35270471 10.5871906,4.50096437 10.5974413,4.64063621 C10.6114965,4.83242343 10.6261646,5.02414526 10.6436226,5.21564913 C10.6568746,5.36105344 10.6736351,5.50148816 10.7024006,5.6442769 C10.717745,5.7203902 10.7657651,5.86228528 10.7315466,5.93850757 C10.6887893,6.03377998 10.4914464,5.97961573 10.4071366,5.9829288 C10.2406094,5.98948954 10.0733848,6.01734544 9.91941211,6.08521967 C9.80008066,6.13783638 9.67461989,6.21521388 9.62425381,6.3456876 C9.5932902,6.42583326 9.60144853,6.50815856 9.61607434,6.59061464 C9.63361687,6.68957066 9.61355921,6.74205658 9.60045515,6.84190625 C9.3767985,6.73684722 8.60175698,6.50342873 8.50423744,6.88578257 C8.4717732,7.0130958 8.54570544,7.15695257 8.60211629,7.26432203 C8.70105191,7.45264361 8.83076093,7.62477041 8.96336553,7.78891969 C9.23996679,8.13136418 9.57018901,8.42672827 9.92547802,8.67932767 C9.50921288,8.85585736 9.40055489,9.37655346 9.76095871,9.68678275 C9.92008845,9.82375182 10.1340439,9.8542451 10.3347684,9.84548291 C10.4082357,9.84227883 10.514146,9.81533838 10.5719518,9.82754441 C10.6030634,9.83410515 10.6363731,9.85925829 10.6794685,9.86207003 C10.9627486,9.88057525 11.2825299,9.81546916 11.5594482,9.75550705 C12.0528793,9.64866071 12.5200178,9.42566092 12.9014937,9.08602818 C12.9993515,8.99890765 13.080195,8.94875395 13.2119119,8.95003995 C13.3273333,8.95115157 13.4405777,8.98133969 13.5558934,8.98412964 C13.8610066,8.99156224 14.1361072,8.84927482 14.4194296,8.75456912 C14.4367819,9.11968195 14.545778,9.52180519 14.7023504,9.85027814 C14.8300304,10.1181351 15.0966557,10.1570636 15.3586522,10.1805602 C16.1964664,10.255758 17.0372396,10.1718416 17.8761105,10.1729532 C17.0640606,10.3480443 16.224936,10.4202125 15.4200934,10.6262546 C15.0562867,10.7193692 15.3340927,10.9532672 15.4896505,11.1154112 C15.7457926,11.3824181 15.9362452,11.713245 16.0683426,12.0617707 C16.4655857,11.5678189 17.1677306,11.2423539 17.7897929,11.394101 C18.4771217,11.5617377 18.9611053,12.4483967 18.521591,13.0858347 C18.2664212,13.4558736 17.8056234,13.5987277 17.4222029,13.7577112 C17.7213136,14.0543613 17.7936607,14.4924923 17.9736935,14.8615503 C18.062484,15.0435509 18.1871205,15.2493315 18.3856892,15.3127592 C18.4591565,15.336234 18.5453051,15.3382393 18.6032589,15.3953679 C18.6750564,15.4660975 18.6921551,15.5451751 18.7838412,15.6059655 C19.149698,15.8486039 19.7211828,15.8299025 20.0454659,15.513265 C20.338722,15.2269029 20.2624226,14.7737541 20.0175036,14.483425 C20.4073704,14.3284084 21.1176525,14.129036 20.9627076,13.549642 C21.8074965,13.4961317 23.8586195,12.1891712 22.7247804,11.2341366 C23.3470329,10.898667 23.9187079,10.0788142 23.5190131,9.35610836 C23.2112368,8.79960065 22.4954595,8.55083743 21.9081864,8.52132499" id="hair" fill="#191847" transform="translate(16.074074, 9.528571) scale(-1, 1) translate(-16.074074, -9.528571) "></path>
                        </g>
                        <g id="Bottom/Sitting/Skinny-Jeans-1" transform="translate(0.000000, 42.266979)">
                            <g id="Objects/Seat/Cube" transform="translate(2.233333, 9.450000)" stroke-width="1">
                                <g id="Seat" transform="translate(12.434783, 0.000000)">
                                    <polygon id="Seat-Stuff" fill="#C5CFD6" points="6.24511895 0 23.7113654 0 26 27.776 0 27.776"></polygon>
                                    <polygon id="Seat-Stuff" fill-opacity="0.1" fill="#000000" points="6.24511895 0 11.6169811 0 14.8321575 27.776 0 27.776"></polygon>
                                </g>
                            </g>
                            <path d="M57.609569,4.67012839 C59.4491207,3.55728305 62.5354524,4.98706088 62.5333333,6.57864346 C62.5269931,11.3406549 58.2133256,33.7839976 57.9881033,35.2027599 C57.762881,36.6215222 55.3501853,36.9962709 55.2096861,35.2074094 C54.9861282,32.3610289 54.5707854,22.5074523 54.9863528,17.9465967 C55.1578903,16.0639714 55.342627,14.2710218 55.5244965,12.6714588 C53.2609582,16.7896357 49.7602811,22.6858495 45.0224653,30.3601 L42.4504346,29.1762393 C44.4701703,22.4721222 46.1263233,17.7391939 47.4188934,14.9774544 C49.6320873,10.248686 51.7073185,6.1991262 52.5807163,4.77270162 C53.9545716,2.52893483 56.3459865,3.31181832 57.609569,4.67012839 Z" id="Skin" fill="#B28B67"></path>
                            <path d="M46.6623239,27.7308793 L47.7518667,4.91362143 C48.5669351,0.969698814 55.5494696,2.81771335 55.5516386,4.93231257 C55.5565628,9.73310741 52.7286258,26.3104153 52.7300929,27.7407325 L46.6623239,27.7308793 Z" id="LegLower" fill="#1F28CF" transform="translate(51.106984, 15.170062) rotate(20.000000) translate(-51.106984, -15.170062) "></path>
                            <g id="Accessories/Shoe/Flat-Sneaker" transform="translate(48.128333, 29.925000) rotate(30.000000) translate(-48.128333, -29.925000) translate(41.316667, 25.425000)" fill="#E4E4E4">
                                <path d="M0.65014921,5.65093557 C0.372271959,6.35530444 0.233333333,6.87958456 0.233333333,7.22377594 C0.233333333,7.62951533 0.303429981,8.22159002 0.443623277,9 C0.931742273,9 5.31854989,9 13.6040461,9 C13.9460389,7.90976413 13.7486208,7.32118087 13.011792,7.23425021 C12.2749632,7.14731955 11.662867,7.06882813 11.1755033,6.99877594 L5.02353241,4.35414588 C4.92205472,4.31052231 4.80442691,4.35742234 4.76080333,4.45890003 C4.76075058,4.45902275 4.76069795,4.45914552 4.76064544,4.45926834 L4.35474972,5.40870638 C3.67263895,5.71559674 3.11835313,5.86904191 2.69189227,5.86904191 C2.33234818,5.86904191 1.83065339,5.72374398 1.18680788,5.43314812 L1.18681402,5.43313452 C0.985451775,5.34225086 0.748539659,5.43181145 0.657656001,5.6331737 C0.655011376,5.63903314 0.652508385,5.64495548 0.65014921,5.65093557 Z" id="shoe"></path>
                            </g>
                            <g id="Accessories/Shoe/Flat-Sneaker" transform="translate(54.046667, 28.350000)" fill="#E4E4E4">
                                <path d="M0.65014921,5.65093557 C0.372271959,6.35530444 0.233333333,6.87958456 0.233333333,7.22377594 C0.233333333,7.62951533 0.303429981,8.22159002 0.443623277,9 C0.931742273,9 5.31854989,9 13.6040461,9 C13.9460389,7.90976413 13.7486208,7.32118087 13.011792,7.23425021 C12.2749632,7.14731955 11.662867,7.06882813 11.1755033,6.99877594 L5.02353241,4.35414588 C4.92205472,4.31052231 4.80442691,4.35742234 4.76080333,4.45890003 C4.76075058,4.45902275 4.76069795,4.45914552 4.76064544,4.45926834 L4.35474972,5.40870638 C3.67263895,5.71559674 3.11835313,5.86904191 2.69189227,5.86904191 C2.33234818,5.86904191 1.83065339,5.72374398 1.18680788,5.43314812 L1.18681402,5.43313452 C0.985451775,5.34225086 0.748539659,5.43181145 0.657656001,5.6331737 C0.655011376,5.63903314 0.652508385,5.64495548 0.65014921,5.65093557 Z" id="shoe"></path>
                            </g>
                            <path d="M63.15205,8.19743126 C63.15205,14.175 60.3343039,28.118316 60.3325209,29.4345251 L54.27,29.4392166 C55.1573653,16.9977332 55.4720183,10.7099759 55.2139592,10.5759445 C54.8268705,10.3748975 39.3459371,12.1331319 34.7029533,12.1331319 C28.0077476,12.1331319 25.2380751,7.87958935 25.0133333,-4.40536496e-13 L38.2762866,-4.40536496e-13 C40.9767429,0.29112006 55.062571,3.15343277 60.2937682,4.13739289 C62.5333333,4.55864307 63.15205,6.55076495 63.15205,8.19743126 Z" id="Leg-and-Butt" fill="#2B44FF"></path>
                        </g>
                        <g id="Body/Hoodie" transform="translate(4.488533, 18.435597)">
                            <path d="M42.6452105,20.9344994 L49.7754122,26.2522894 C51.7092697,26.782279 53.3249452,27.4416756 54.6224386,28.2304793 C54.928929,28.514128 55.2993516,29.0885637 54.0282615,28.9892869 C52.7571714,28.89001 51.4157793,28.8436457 51.2403935,29.2839787 C51.0650078,29.7243117 51.8342027,30.2509017 51.4796717,30.8450263 C51.2433177,31.2411093 50.1266867,30.2479458 48.1297785,27.8655358 L41.0690083,24.8917988 L42.6452105,20.9344994 Z M15.268831,21.1180294 L19.9400127,21.1366864 C17.0557735,30.5931948 15.4987129,35.6107589 15.268831,36.1893787 C14.7515965,37.4912734 15.8461342,39.4740364 16.3142019,40.5395584 C14.7897209,41.2323922 14.952156,38.666546 13.0290642,39.5752361 C11.2737553,40.4046462 9.9384961,41.9074819 7.91049022,40.63656 C7.66115882,40.4803076 7.38793222,39.8919892 8.04808223,39.4322495 C9.69275664,38.2868702 12.0628321,36.28225 12.3830666,35.6224137 C12.8197636,34.7226091 13.7816851,29.8878143 15.268831,21.1180294 Z" id="Skin" fill="#B28B67"></path>
                            <path d="M27.4161831,2.16077927 L29.3123672,1.65687919 C37.0050451,7.30003906 40.9929934,19.0852842 50.3082193,24.6982604 L48.4326081,27.5362049 C33.0734526,26.9549011 28.0229188,12.5960218 27.4161831,2.16077927 Z" id="Coat-Back" fill="#E87613" transform="translate(38.862201, 14.596542) rotate(5.000000) translate(-38.862201, -14.596542) "></path>
                            <path d="M20.1176471,25.8810811 C27.8678043,25.8810811 33.5686574,25.8810811 37.2202066,25.8810811 C38.0017064,25.8810811 37.8544477,24.7349663 37.7414771,24.1566304 C36.4376608,17.4819361 31.3480562,10.2869386 31.3480562,0.785679311 L26.414873,0 C22.3344966,6.66515182 20.9234318,14.8713032 20.1176471,25.8810811 Z" id="Shirt" fill="#DDE3E9"></path>
                            <path d="M20.2550822,6.55153652 C19.5385992,6.3423606 18.9712189,5.85449705 18.5529412,5.08794588 C16.7498539,1.78354153 17.4010331,-0.0357778215 19.3279616,-0.633798366 C21.25489,-1.23181891 22.9733067,-4.6629367e-15 26.0434188,-1.55431223e-15 C26.2104073,-1.44328993e-15 26.36335,0.010632251 26.5022468,0.0318967531 L28.0465901,0.12140042 C32.4774792,15.3731793 33.699492,25.5489287 31.7126284,30.6486486 L18.251582,30.6486486 C17.4540293,32.5374842 16.6908387,34.1266734 15.9620101,35.4162162 L12.2941176,35.4162162 C11.9489174,24.0800963 14.6025723,14.4585364 20.2550822,6.55153652 Z" id="Coat-Front" fill="#FF9B21"></path>
                            <path d="M21.1828158,22.8156788 C21.6061631,26.4132377 22.2942441,29.0242276 23.2470588,30.6486486 L18.251582,30.6486486 C19.1819049,28.4453747 20.1589828,25.8343847 21.1828158,22.8156788 Z" id="Shade" fill-opacity="0.1" fill="#000000"></path>
                        </g>
                    </g>
                    <g id="Head/Front/Airy" transform="translate(97.795406, 11.700000) scale(-1, 1) translate(-97.795406, -11.700000) translate(82.511752, 0.000000)">
                        <g id="Head" stroke-width="1" transform="translate(12.400000, 6.790476)" fill="#B28B67">
                            <path d="M1.89726289,7.55498015 C0.839150332,6.37020615 0.122997619,4.91824927 0.242667158,3.2912899 C0.587468421,-1.39643308 7.42818111,-0.36519375 8.75884135,2.00076626 C10.0895016,4.36672627 9.93138457,10.36818 8.21162476,10.7910431 C7.52578712,10.9596802 6.06474923,10.5465869 4.57775332,9.6916106 L5.51111111,15.9904762 L0,15.9904762 L1.89726289,7.55498015 Z"></path>
                        </g>
                        <path d="M18.0176478,6.06438958 C17.2912993,5.95076543 15.335574,5.87264567 14.9749033,5.8726961 C14.7444177,5.8726961 14.4946415,5.92292675 14.3581316,5.72104594 C14.2463411,5.55572861 14.2872941,5.2761315 14.2539308,5.08428673 C14.2151916,4.86142605 14.160166,4.64144002 14.1045079,4.42200874 C13.9461248,3.79760546 13.7066264,3.20356248 13.3715184,2.64583081 C12.7427296,1.59945982 11.8215779,0.779832806 10.6586613,0.302893804 C9.37446704,-0.223721091 7.9212957,-0.344304908 6.53996334,-0.237489131 C5.06175641,-0.123209361 3.72364339,0.342281491 2.32797486,0.78033713 C0.997978644,1.19776593 -0.395054563,1.36207461 -1.78608492,1.15822694 C-3.18760388,0.952866296 -4.24658319,0.228253884 -5.42873763,-0.45949246 C-6.63893193,-1.16357889 -8.0219509,-1.62407694 -9.45261656,-1.51821938 C-10.7880942,-1.41937192 -12.0189495,-0.893362212 -13.1232564,-0.190687883 C-14.1564622,0.466748601 -15.0089901,1.25773002 -15.490306,2.37097434 C-16.0080948,3.56849117 -16.0076205,4.88296068 -15.1561467,5.94128414 C-13.921971,7.47533623 -11.630766,7.87203731 -9.72458218,7.83259919 C-8.62201458,7.80985419 -7.53915922,7.61785813 -6.49820553,7.26861391 C-5.10996862,6.80282046 -3.91031562,6.01335201 -2.61157437,5.37281037 C-2.00207622,5.0722334 -1.37207524,4.8253669 -0.711715308,4.64754234 C-0.0709094917,4.47491231 0.560251032,4.39573347 1.14044436,4.76499935 C1.75421173,5.15564855 2.30420422,5.53938852 3.00636042,5.78393512 C3.67994969,6.01854654 4.39343779,6.14977159 5.11108971,6.14447619 C6.50739072,6.13418799 7.88382137,5.71917995 9.23996002,5.44119668 C10.3458481,5.21455357 11.5291094,4.98866694 12.6565545,5.20653482 C13.1270128,5.2974644 13.8142004,5.48517371 13.9841262,5.95157234 C11.1242179,6.44601138 10.000992,9.8199375 10.8072436,12.296722 C11.2423886,13.6335331 13.8581049,15.1962511 14.8751298,14.4934693 C15.5194444,14.0482368 15.1282792,13.4637273 14.8751298,13.0778691 C14.3903353,12.3389339 14.2244679,11.3897461 15.1215328,10.8752854 C15.8953172,10.4315814 16.7088981,11.4852608 16.7242884,11.4841008 C16.9369592,11.4681138 18.7746196,10.4767291 20.0407342,9.03004731 C21.2897609,9.10067627 21.4792564,8.31505299 21.1810133,7.6725608 C20.8827701,7.03006861 19.0212325,6.22148643 18.0176478,6.06438958 Z" id="hair" fill="#191847"></path>
                    </g>
                    <g id="Bottom/Standing/Shorts" transform="translate(99.593483, 69.300000) scale(-1, 1) translate(-99.593483, -69.300000) translate(65.929487, 42.400000)">
                        <polygon id="Leg" fill="#997659" points="28.5866667 9.9475983e-14 36.9908871 27.6804384 41.0621011 51.2208683 44.254214 51.2208683 39.9523175 9.9475983e-14"></polygon>
                        <path d="M25.5800924,0 C26.1509274,15.1980485 25.4791318,23.0374771 25.3513721,24.4182859 C25.2236124,25.7990947 23.4741638,34.7523328 19.3325568,51.6844056 L22.7339916,50.5074823 C29.2794153,34.9782657 31.5098623,26.9074576 32.2605729,24.8682859 C33.0112834,22.8291142 35.0051334,14.5396856 38.2421227,0 L25.5800924,0 Z" id="Leg" fill="#B28B67"></path>
                        <g id="Accessories/Shoe/Flat-Sneaker" transform="translate(18.760000, 44.775000)" fill="#E4E4E4">
                            <path d="M0.65014921,5.65093557 C0.372271959,6.35530444 0.233333333,6.87958456 0.233333333,7.22377594 C0.233333333,7.62951533 0.303429981,8.22159002 0.443623277,9 C0.931742273,9 5.31854989,9 13.6040461,9 C13.9460389,7.90976413 13.7486208,7.32118087 13.011792,7.23425021 C12.2749632,7.14731955 11.662867,7.06882813 11.1755033,6.99877594 L5.02353241,4.35414588 C4.92205472,4.31052231 4.80442691,4.35742234 4.76080333,4.45890003 C4.76075058,4.45902275 4.76069795,4.45914552 4.76064544,4.45926834 L4.35474972,5.40870638 C3.67263895,5.71559674 3.11835313,5.86904191 2.69189227,5.86904191 C2.33234818,5.86904191 1.83065339,5.72374398 1.18680788,5.43314812 L1.18681402,5.43313452 C0.985451775,5.34225086 0.748539659,5.43181145 0.657656001,5.6331737 C0.655011376,5.63903314 0.652508385,5.64495548 0.65014921,5.65093557 Z" id="shoe"></path>
                        </g>
                        <g id="Accessories/Shoe/Flat-Sneaker" transform="translate(39.753333, 44.775000)" fill="#E4E4E4">
                            <path d="M0.65014921,5.65093557 C0.372271959,6.35530444 0.233333333,6.87958456 0.233333333,7.22377594 C0.233333333,7.62951533 0.303429981,8.22159002 0.443623277,9 C0.931742273,9 5.31854989,9 13.6040461,9 C13.9460389,7.90976413 13.7486208,7.32118087 13.011792,7.23425021 C12.2749632,7.14731955 11.662867,7.06882813 11.1755033,6.99877594 L5.02353241,4.35414588 C4.92205472,4.31052231 4.80442691,4.35742234 4.76080333,4.45890003 C4.76075058,4.45902275 4.76069795,4.45914552 4.76064544,4.45926834 L4.35474972,5.40870638 C3.67263895,5.71559674 3.11835313,5.86904191 2.69189227,5.86904191 C2.33234818,5.86904191 1.83065339,5.72374398 1.18680788,5.43314812 L1.18681402,5.43313452 C0.985451775,5.34225086 0.748539659,5.43181145 0.657656001,5.6331737 C0.655011376,5.63903314 0.652508385,5.64495548 0.65014921,5.65093557 Z" id="shoe"></path>
                        </g>
                        <polygon id="Bottom" fill="#69A1AC" points="27.47 0 31.0433333 14.102892 41.9577043 14.102892 40.3303272 0"></polygon>
                        <path d="M25.46,-3.55271368e-15 C24.2842481,3.55062287 24.0609147,8.25158688 24.79,14.102892 L35.9277043,14.102892 L38.9903272,-3.55271368e-15 L25.46,-3.55271368e-15 Z" id="Bottom" fill="#89C5CC"></path>
                    </g>
                    <g id="Body/Turtle-Neck" transform="translate(99.293803, 39.600000) scale(-1, 1) rotate(8.000000) translate(-99.293803, -39.600000) translate(70.524573, 18.600000)">
                        <path d="M45.3749065,20.9909948 L51.8181161,27.264892 C53.6928526,28.0630761 55.2289321,28.9444325 56.4263547,29.9089612 C56.695637,30.2331721 56.9887948,30.854377 55.7218345,30.5763967 C54.4548742,30.2984164 53.109697,30.0628966 52.8715741,30.4741534 C52.6334513,30.8854102 53.3350997,31.5156017 52.8950191,32.0538311 C52.6016321,32.4126506 51.6149484,31.2713159 49.934968,28.6298268 L43.2348821,24.6869847 L45.3749065,20.9909948 Z M13.8676389,15.3129011 L18.8482222,15.3315581 C15.0548513,27.5986926 13.0412084,34.0215697 12.8072934,34.6001896 C12.2809847,35.9020842 13.3947247,37.8848472 13.8710042,38.9503692 C12.3197779,39.643203 12.4850627,37.0773568 10.5282325,37.9860469 C8.74212868,38.815457 7.38344392,40.3182927 5.31985899,39.0473708 C5.06615335,38.8911184 4.7881333,38.3028 5.45986489,37.8430603 C7.13339324,36.697681 9.54504898,34.6930608 9.87090165,34.0332245 C10.31526,33.1334199 11.6475057,26.8933121 13.8676389,15.3129011 Z" id="Skin" fill="#B28B67"></path>
                        <path d="M27.9259091,2.20712524 L29.8558745,1.70026969 C33.8951517,12.3204105 50.4030041,18.3561576 51.7326997,22.3420078 C52.2203342,23.8037244 51.2098804,24.6526029 51.8057241,25.0586931 L49.4218013,27.1423302 C48.9465965,26.6778279 48.1066552,27.6770471 46.1285159,27.2025611 C44.1503766,26.7280751 29.0540655,15.1020121 27.9259091,2.20712524 Z" id="Clothes-Back" fill="#DB2721" transform="translate(39.898195, 14.517091) rotate(5.000000) translate(-39.898195, -14.517091) "></path>
                        <path d="M32.3528214,2.66176109 C32.1252211,17.1363414 40.5081617,20.8282144 38.6410244,26.6344125 C37.0992477,31.4288435 22.3419028,36.5828367 19.7882353,31.8831627 C18.7545433,29.9807947 18.285553,27.680015 18.2323402,25.1785704 C17.5796766,27.1003367 17.0634918,28.7547486 16.6837857,30.141806 C16.0287399,32.5346733 13.4892669,32.9150303 13.4892669,33.8368486 L10.1435472,32.9150303 C10.3704795,31.6627017 8.79322637,31.0528923 9.21612905,28.2550811 C11.1109841,15.7192262 16.2021226,6.63238367 24.4895446,0.994553559 L24.5830106,-0.337076635 C24.6138826,-0.777743236 24.9960817,-1.10998376 25.4367563,-1.07922622 L25.4367708,-1.07943347 L31.7820605,-0.636762822 C32.222816,-0.605999641 32.5551805,-0.223758207 32.5244173,0.216997316 C32.5244125,0.217066389 32.5244077,0.21713546 32.5244028,0.217204531 L32.3528214,2.66176109 Z" id="Clothes-Front" fill="#FF4133"></path>
                    </g>
                </g>
            </g>
        </g>
    </g>
</svg>