<?xml version="1.0" encoding="UTF-8"?>
<svg width="38px" height="38px" viewBox="0 0 38 38" version="1.1" xmlns="http://www.w3.org/2000/svg" xmlns:xlink="http://www.w3.org/1999/xlink">
    <!-- Generator: Sketch 54.1 (76490) - https://sketchapp.com -->
    <title>收入2X</title>
    <desc>Created with Sketch.</desc>
    <g id="视觉稿" stroke="none" stroke-width="1" fill="none" fill-rule="evenodd">
        <g id="首页复制" transform="translate(-186.000000, -581.000000)" fill-rule="nonzero">
            <g id="收入" transform="translate(186.000000, 581.000000)">
                <g id="编组">
                    <path d="M0,19.0000221 L2.17270819e-13,19.000025 C1.58446476e-06,29.4934552 8.50659193,38.0000471 19.0000221,38.0000471 C29.4934523,38.0000455 38.0000442,29.4934552 38.0000442,19.000025 L38.0000442,19.000025 C38.0000442,8.5065948 29.4934523,2.8689217e-06 19.0000221,2.8689217e-06 C8.50659193,2.8689217e-06 2.19380325e-13,8.5065948 2.19380325e-13,19.000025 L0,19.0000221 Z" id="路径" fill="#FFBF5B"></path>
                    <path d="M9.55278065,24.2777978 L9.55278065,24.2777972 C9.55277985,26.6096677 13.8060766,28.5000326 19.0527917,28.5000326 C24.2995068,28.5000329 28.5528028,26.6096788 28.5528028,24.2777972 C28.5528028,24.2777972 28.5528028,24.2777971 28.5528028,24.2777971 L28.5528028,24.2777971 C28.5528028,21.9459266 24.2995068,20.0555617 19.0527917,20.0555617 C13.8060766,20.0555617 9.55278065,21.9459155 9.55278065,24.2777971 L9.55278065,24.2777978 Z" id="路径" fill="#FFFFFF"></path>
                    <path d="M9.50001105,21.1111398 L9.50001105,21.1111404 C9.50001185,23.4430109 13.753307,25.3333758 19.0000221,25.3333758 C24.2467372,25.3333755 28.5000332,23.4430183 28.5000332,21.1111404 L28.5000332,21.1111404 C28.5000332,18.77927 24.2467372,16.8889051 19.0000221,16.8889051 C13.753307,16.8889051 9.50001105,18.7792588 9.50001105,21.1111404 L9.50001105,21.1111398 Z" id="路径" fill="#FFBF5B"></path>
                    <path d="M9.50001105,19.0000221 L9.50001105,19.0000227 C9.50001185,21.3318932 13.753307,23.2222581 19.0000221,23.2222581 C24.2467372,23.2222578 28.5000332,21.3319007 28.5000332,19.0000227 L28.5000332,19.0000227 C28.5000332,16.6681523 24.2467372,14.7777874 19.0000221,14.7777874 C13.753307,14.7777874 9.50001105,16.6681411 9.50001105,19.0000227 L9.50001105,19.0000221 Z" id="路径" fill="#FFFFFF"></path>
                    <path d="M9.50001105,15.8333641 L9.50001105,15.8333648 C9.50001185,18.1652353 13.753307,20.0556001 19.0000221,20.0556001 C24.2467372,20.0555998 28.5000332,18.1652427 28.5000332,15.8333648 L28.5000332,15.8333648 C28.5000332,13.5014943 24.2467372,11.6111294 19.0000221,11.6111294 C13.753307,11.6111294 9.50001105,13.5014831 9.50001105,15.8333648 L9.50001105,15.8333641 Z" id="路径" fill="#FFBF5B"></path>
                    <path d="M9.50001105,13.7222464 L9.50001105,13.7222471 C9.50001185,16.0541176 13.753307,17.9444825 19.0000221,17.9444825 C24.2467372,17.9444821 28.5000332,16.054125 28.5000332,13.7222471 L28.5000332,13.7222471 C28.5000332,11.3903766 24.2467372,9.50001169 19.0000221,9.50001169 C13.753307,9.50001169 9.50001105,11.3903655 9.50001105,13.7222471 L9.50001105,13.7222464 Z" id="路径" fill="#FFFFFF"></path>
                </g>
            </g>
        </g>
    </g>
</svg>