<?xml version="1.0" encoding="UTF-8"?>
<svg width="70px" height="70px" viewBox="0 0 70 70" version="1.1" xmlns="http://www.w3.org/2000/svg" xmlns:xlink="http://www.w3.org/1999/xlink">
    <!-- Generator: Sketch 52.2 (67145) - http://www.bohemiancoding.com/sketch -->
    <title>分组 22X</title>
    <desc>Created with Sketch.</desc>
    <g id="Page-1" stroke="none" stroke-width="1" fill="none" fill-rule="evenodd">
        <g id="微信绑定EOS账号" transform="translate(-190.000000, -112.000000)">
            <g id="分组-2" transform="translate(190.000000, 112.000000)">
                <path d="M35.00012,6.10811887e-15 C54.3299446,6.10811887e-15 70.0000001,15.6700734 70,35 C70,54.3300866 54.3299445,70 35.00012,70 C15.6700555,70 0,54.3300065 0,35 C0,15.6701534 15.6700555,0 35.00012,6.10811887e-15 Z" id="路径" fill="#EEEEEE"></path>
                <g id="微信" transform="translate(11.833333, 15.166667)" fill="#CCCCCC" fill-rule="nonzero">
                    <path d="M32.1111111,11.6666667 C32.6666667,11.6666667 33.2222223,11.6666667 33.7777778,11.7777778 C32.3333333,5.11111113 25.1111111,0.111111133 16.8888889,0.111111133 C7.66666665,0.111111133 0.222222217,6.33333335 0.222222217,14.3333333 C0.222222217,18.8888889 2.77777778,22.6666667 6.88888887,25.5555556 L5.22222222,30.5555556 L11.1111111,27.6666667 C13.2222223,28.1111111 14.8888889,28.5555555 17,28.5555556 C17.5555556,28.5555556 18,28.5555556 18.5555556,28.4444444 C18.2222222,27.3333333 18,26.1111111 18,24.8888889 C18,17.6666667 24.2222222,11.6666667 32.1111111,11.6666667 Z M23.2222222,7.22222222 C24.4444444,7.22222222 25.3333333,8 25.3333333,9.33333335 C25.3333333,10.5555556 24.5555556,11.4444445 23.2222222,11.4444444 C22,11.4444444 20.6666667,10.5555556 20.6666667,9.33333335 C20.6666667,8 21.8888889,7.22222222 23.2222222,7.22222222 Z M11.4444444,11.3333333 C10.2222222,11.3333333 8.88888887,10.4444445 8.88888887,9.22222222 C8.88888887,8 10.1111111,7.11111108 11.4444444,7.11111113 C12.6666667,7.11111113 13.5555556,7.88888892 13.5555556,9.22222222 C13.5555556,10.5555555 12.7777778,11.3333333 11.4444444,11.3333333 Z" id="形状"></path>
                    <path d="M47.4444444,24.7777778 C47.4444444,18.1111111 40.7777778,12.6666667 33.2222222,12.6666667 C25.2222222,12.6666667 19,18.1111111 19,24.7777778 C19,31.4444445 25.2222222,36.8888889 33.2222222,36.8888889 C34.8888889,36.8888889 36.5555556,36.4444444 38.2222222,36 L42.7777778,38.5555556 L41.5555556,34.3333333 C44.8888889,31.8888889 47.4444444,28.4444445 47.4444444,24.7777778 Z M28.5555556,22.6666667 C27.7777778,22.6666667 26.8888889,21.8888889 26.8888889,21 C26.8888889,20.2222222 27.7777777,19.3333333 28.5555556,19.3333333 C29.7777778,19.3333333 30.6666667,20.2222222 30.6666667,21 C30.6666666,21.7777778 29.8888889,22.6666667 28.5555556,22.6666667 Z M37.7777778,22.6666667 C37,22.6666667 36.1111111,21.8888889 36.1111111,21 C36.1111111,20.2222222 37,19.3333333 37.7777778,19.3333333 C39,19.3333333 39.8888889,20.2222222 39.8888889,21 C39.8888888,21.7777778 39,22.6666667 37.7777778,22.6666667 Z" id="形状"></path>
                </g>
            </g>
        </g>
    </g>
</svg>