<?xml version="1.0" encoding="UTF-8"?>
<svg width="42px" height="42px" viewBox="0 0 42 42" version="1.1" xmlns="http://www.w3.org/2000/svg" xmlns:xlink="http://www.w3.org/1999/xlink">
    <!-- Generator: Sketch 52.2 (67145) - http://www.bohemiancoding.com/sketch -->
    <title>分组2X</title>
    <desc>Created with Sketch.</desc>
    <g id="Page-1" stroke="none" stroke-width="1" fill="none" fill-rule="evenodd">
        <g id="钱包扫码" transform="translate(-752.000000, -244.000000)">
            <g id="分组-2" transform="translate(720.000000, 245.000000)">
                <g id="分组-4">
                    <g id="分组" transform="translate(32.000000, 0.000000)">
                        <rect id="Mask" stroke="#EAEAEA" stroke-width="0.615384615" fill="#5A5FD2" fill-rule="nonzero" x="0.311175617" y="-0.307692308" width="40.6153846" height="40.6153846" rx="19.6923077"></rect>
                        <circle id="椭圆形" fill="#5A5FD2" cx="20.7735849" cy="20" r="20"></circle>
                        <path d="M22.2056078,24.8253165 C26.0076395,24.8362978 29.375612,22.3888336 30.5198484,18.7834601 C31.6640847,15.1780866 30.3190009,11.2516317 27.1993493,9.09053967 C24.0796976,6.9294476 19.9095671,7.03532019 16.9048866,9.35189873 C16.75722,8.08607595 16.1105422,7.53417722 14.9648531,7.53417722 C14.4170177,7.57127757 13.8734994,7.65598903 13.3405207,7.78734177 C14.8019107,10.521519 14.1297731,21.5139241 13.8497158,30.2329114 C13.8189557,30.7211801 13.8636038,31.2112532 13.9821065,31.6860759 C14.1658629,32.230052 14.7072602,32.5720627 15.2805541,32.5063291 C16.1774263,32.4555369 17.0496476,32.1953433 17.8265297,31.7468354 C16.8997946,30.2278481 16.8081395,27.1088608 16.8845187,22.9974684 C17.4766058,23.4570687 18.1250964,23.8398896 18.8143683,24.1367089 C18.7328971,26.5974684 18.631058,29.0936709 18.5597707,31.4329114 C18.5294103,31.9211745 18.574053,32.4111872 18.6921615,32.8860759 C18.8794098,33.426778 19.4191654,33.7656468 19.990609,33.7012658 C20.8875604,33.6548875 21.7604152,33.3962408 22.5365847,32.9468354 C21.6556771,31.5139241 21.5181944,28.6126582 21.5894817,24.7949367 C21.7880678,24.8101266 21.9968378,24.8253165 22.2056078,24.8253165 Z M28.040984,16.1822785 C28.0409845,17.867113 27.3675498,19.4828671 26.168971,20.6737501 C24.9703921,21.8646331 23.3449559,22.5329891 21.6505851,22.5316456 L21.6200334,22.5316456 C21.6964127,19.0329114 21.8135276,14.9367089 21.6200334,10.6278481 C21.5973757,10.3581518 21.5391684,10.0925864 21.4469071,9.83797266 L21.6505851,9.83797468 C23.344074,9.83663128 24.9687386,10.5042925 26.1671709,11.6940804 C27.3656033,12.8838682 28.0396341,14.4983215 28.040984,16.1822785 Z M16.9405302,20.4556962 C16.9965417,17.8379747 17.062737,14.9265823 16.9965417,11.8481013 C17.4408647,11.3698037 17.9559893,10.961731 18.5241271,10.6379747 C18.9773107,13.1139241 18.9824027,17.321519 18.8601958,21.8987342 C18.133521,21.5440087 17.4818943,21.0541723 16.9405302,20.4556962 Z" id="形状" fill="#FFFFFF" fill-rule="nonzero"></path>
                    </g>
                </g>
            </g>
        </g>
    </g>
</svg>