<?xml version="1.0" encoding="UTF-8"?>
<svg width="690px" height="571px" viewBox="0 0 690 571" version="1.1" xmlns="http://www.w3.org/2000/svg" xmlns:xlink="http://www.w3.org/1999/xlink">
    <!-- Generator: Sketch 54.1 (76490) - https://sketchapp.com -->
    <title>收益计算方式2X</title>
    <desc>Created with Sketch.</desc>
    <g id="视觉稿" stroke="none" stroke-width="1" fill="none" fill-rule="evenodd">
        <g id="收益计算方式" transform="translate(-30.000000, -152.000000)">
            <g transform="translate(30.000000, 152.000000)">
                <rect id="矩形" fill="#FFFFFF" fill-rule="nonzero" x="0" y="0" width="690" height="571" rx="10"></rect>
                <g id="编组-7" transform="translate(30.000000, 201.000000)" fill="#333333">
                    <g id="编组-4" transform="translate(260.000000, 13.000000)">
                        <g id="编组" transform="translate(0.000000, 6.000000)" fill-rule="nonzero">
                            <path d="M126.571612,1.42108547e-13 C129.593119,10.1604291 131.624659,16.372074 131.624659,27.0295989 C131.624659,43.4197449 126.571612,54.8850586 126.571612,54.8850586 C126.571612,54.8850586 124,54.8850586 124,54.8850586 C127.364996,44.7407118 129.444255,35.1560293 129.40225,26.9210139 C129.320578,10.9093186 124,1.42108547e-13 124,1.42108547e-13 C124,1.42108547e-13 126.571612,1.42108547e-13 126.571612,1.42108547e-13 Z" id="路径"></path>
                            <path d="M2.57161236,1.42108547e-13 C5.5931189,10.1604291 7.62465916,16.372074 7.62465916,27.0295989 C7.62465916,43.4197449 2.57161236,54.8850586 2.57161236,54.8850586 C2.57161236,54.8850586 -9.81437154e-13,54.8850586 -9.81437154e-13,54.8850586 C3.36499557,44.7407118 5.44425511,35.1560293 5.40225025,26.9210139 C5.3205784,10.9093186 -9.81437154e-13,1.42108547e-13 -9.81437154e-13,1.42108547e-13 C-9.81437154e-13,1.42108547e-13 2.57161236,1.42108547e-13 2.57161236,1.42108547e-13 Z" id="路径复制-2" transform="translate(3.812330, 27.442529) scale(-1, 1) translate(-3.812330, -27.442529) "></path>
                        </g>
                        <polygon id="路径复制" fill-rule="nonzero" points="116 34.5890166 16 34.5890166 16 33 116 33"></polygon>
                        <text id="100" font-family="PingFangSC-Regular, PingFang SC" font-size="28" font-weight="normal">
                            <tspan x="44" y="61">100</tspan>
                        </text>
                        <text id="持币数量" font-family="PingFangSC-Regular, PingFang SC" font-size="26" font-weight="normal">
                            <tspan x="14" y="28">持币数量</tspan>
                        </text>
                    </g>
                    <g id="编组-3" transform="translate(397.000000, 0.000000)">
                        <polygon id="路径复制" fill-rule="nonzero" points="11 28.5890166 1 28.5890166 1 27 11 27"></polygon>
                        <text id="e" font-family="PingFangSC-Regular, PingFang SC" font-size="22" font-weight="normal">
                            <tspan x="0" y="43">e</tspan>
                        </text>
                        <text id="1" font-family="PingFangSC-Regular, PingFang SC" font-size="22" font-weight="normal">
                            <tspan x="1" y="23">1</tspan>
                        </text>
                    </g>
                    <text id="群主/个人加成倍数=" font-family="PingFangSC-Regular, PingFang SC" font-size="28" font-weight="normal">
                        <tspan x="0" y="59">群主/个人加成倍数=</tspan>
                    </text>
                    <text id="+1" font-family="PingFangSC-Regular, PingFang SC" font-size="30" font-weight="normal">
                        <tspan x="414" y="60">+1</tspan>
                    </text>
                    <g id="编组-6" transform="translate(480.000000, 33.000000)" font-family="PingFangSC-Regular, PingFang SC" font-weight="normal">
                        <text id="≈2.78" font-size="20">
                            <tspan x="30" y="24">≈2.78</tspan>
                        </text>
                        <text id="e" font-size="22">
                            <tspan x="17" y="23">e</tspan>
                        </text>
                        <text id="*" font-size="22">
                            <tspan x="0" y="29">*</tspan>
                        </text>
                    </g>
                </g>
                <g id="编组-2" transform="translate(30.000000, 40.000000)">
                    <text id="单次广告收益=基础广告收益-综合加成倍数" font-family="PingFangSC-Regular, PingFang SC" font-size="28" font-weight="normal" fill="#333333">
                        <tspan x="0" y="30">单次广告收益=基础广告收益     综合加成倍数</tspan>
                    </text>
                    <g id="编组-5" transform="translate(367.000000, 11.000000)" stroke="#333333" stroke-width="2">
                        <path d="M0,0 L19.1125222,19.0875251" id="路径-2"></path>
                        <path d="M1.77635684e-15,0 L19.1125222,19.0875251" id="路径-2" transform="translate(9.556261, 9.543763) scale(-1, 1) translate(-9.556261, -9.543763) "></path>
                    </g>
                </g>
                <g id="编组-2复制" transform="translate(30.000000, 121.000000)">
                    <text id="综合加成倍数=-群主加成倍数-个人加成倍" font-family="PingFangSC-Regular, PingFang SC" font-size="28" font-weight="normal" fill="#333333">
                        <tspan x="0" y="30">综合加成倍数=   群主加成倍数     个人加成倍数</tspan>
                    </text>
                    <g id="编组-5" transform="translate(395.000000, 12.000000)" stroke="#333333" stroke-width="2">
                        <path d="M0,0 L19.1125222,19.0875251" id="路径-2"></path>
                        <path d="M1.77635684e-15,0 L19.1125222,19.0875251" id="路径-2" transform="translate(9.556261, 9.543763) scale(-1, 1) translate(-9.556261, -9.543763) "></path>
                    </g>
                </g>
                <polygon id="形状" fill="#000000" fill-rule="nonzero" points="230.345041 164 228.792241 164 222.314968 141.962042 219 141.962042 219 139.626813 223.606061 139.626813 229.389807 159.824709 236.35124 121 238 121"></polygon>
                <polygon id="路径" fill="#000000" fill-rule="nonzero" points="626.155658 122.657163 236.155658 122.657163 236.155658 121.068146 626.155658 121.068146"></polygon>
                <text id="简单来说持币越多，倍数越高；和群主持币越" font-family="PingFangSC-Regular, PingFang SC" font-size="28" font-weight="normal" fill="#333333">
                    <tspan x="30" y="481">简单来说持币越多，倍数越高；和群主持币越接近</tspan>
                    <tspan x="30" y="521">综合加成倍数越高</tspan>
                </text>
                <text id="假如本人持有10000-EPRA，群主同" font-family="PingFangSC-Regular, PingFang SC" font-size="28" font-weight="normal" fill="#333333">
                    <tspan x="25" y="355">假如本人持有10000 EPRA，群主同时持有10000 </tspan>
                    <tspan x="25" y="395">EPRA，综合加成倍数为6.4倍</tspan>
                </text>
            </g>
        </g>
    </g>
</svg>