<?xml version="1.0" encoding="UTF-8"?>
<svg width="105px" height="30px" viewBox="0 0 105 30" version="1.1" xmlns="http://www.w3.org/2000/svg" xmlns:xlink="http://www.w3.org/1999/xlink">
    <!-- Generator: Sketch 53.2 (72643) - https://sketchapp.com -->
    <title>彩带2X</title>
    <desc>Created with Sketch.</desc>
    <g id="视觉稿" stroke="none" stroke-width="1" fill="none" fill-rule="evenodd">
        <g id="排行榜" transform="translate(-105.000000, -454.000000)">
            <g id="彩带" transform="translate(105.000000, 453.000000)">
                <rect id="矩形" fill="#EFF6FF" x="24" y="22" width="57" height="8"></rect>
                <g id="分组" transform="translate(0.000000, 1.483871)" fill-rule="nonzero">
                    <path d="M101.233235,28.7598146 L96.8895772,18.5885914 C96.7990843,18.4977769 96.8895772,18.316148 96.98007,18.134519 L104.943442,7.41840885 C105.033935,7.23677987 104.943442,7.05515088 104.762456,7.05515088 L87.8402909,7.05515088 L83.2251549,23.855832 L80.6008618,28.5781856 L101.052249,29.0322581 C101.233235,29.0322581 101.323727,28.8506291 101.233235,28.7598146 L101.233235,28.7598146 Z" id="路径" fill="#AEBFD4"></path>
                    <polygon id="路径" fill="#879AB3" points="80.6008618 28.5781856 87.9307837 27.4884117 80.6008618 24.9456059"></polygon>
                    <path d="M3.68192836,28.7598146 L8.02558578,18.5885914 C8.11607864,18.4977769 8.02558578,18.316148 7.93509292,18.134519 L0.0622138433,7.41840885 C-0.0282790197,7.23677987 0.0622138433,7.05515088 0.243199569,7.05515088 L17.1653649,7.05515088 L21.6900081,23.855832 L24.3143011,28.5781856 L3.86291409,29.0322581 C3.68192836,29.0322581 3.5914355,28.8506291 3.68192836,28.7598146 Z" id="路径" fill="#AEBFD4"></path>
                    <polygon id="路径" fill="#879AB3" points="24.3143011 28.5781856 16.9843792 27.4884117 24.3143011 24.9456059"></polygon>
                    <path d="M16.9843792,27.4884117 C16.9843792,27.4884117 50.3762456,15.1376407 87.9307837,27.4884117 L89.5596553,4.60315959 C89.5596553,4.60315959 57.2537032,-5.74969256 15.6269863,4.60315959 L16.9843792,27.4884117 Z" id="路径" fill="#C3D5EA"></path>
                </g>
                <text id="第2名" font-family="PingFangSC-Medium, PingFang SC" font-size="20" font-weight="400" letter-spacing="4.48000002" fill="#FFFFFF">
                    <tspan x="24" y="21">第2名</tspan>
                </text>
            </g>
        </g>
    </g>
</svg>