<?xml version="1.0" encoding="UTF-8"?>
<svg width="45px" height="45px" viewBox="0 0 45 45" version="1.1" xmlns="http://www.w3.org/2000/svg" xmlns:xlink="http://www.w3.org/1999/xlink">
    <!-- Generator: Sketch 54.1 (76490) - https://sketchapp.com -->
    <title>推特2X</title>
    <desc>Created with Sketch.</desc>
    <g id="视觉稿" stroke="none" stroke-width="1" fill="none" fill-rule="evenodd">
        <g id="B端查询页面" transform="translate(-57.000000, -627.000000)" fill="#2DA9E3" fill-rule="nonzero">
            <g id="推特" transform="translate(57.000000, 627.000000)">
                <path d="M22.7500508,0.864733117 C10.6594955,0.864733117 0.85815889,10.6660697 0.85815889,22.7566739 C0.85815889,34.8472781 10.6594955,44.6485658 22.7500508,44.6485658 C34.8406061,44.6485658 44.6419427,34.8472292 44.6419427,22.7566739 C44.6419427,10.6661186 34.840655,0.864733117 22.7500508,0.864733117 Z M32.4230416,19.0927119 C32.43386,19.3041893 32.4365547,19.5156667 32.4365547,19.7298451 C32.4365547,26.2154186 27.416286,33.702571 18.2378879,33.702571 C15.4176275,33.702571 12.795981,32.8912038 10.5878886,31.4879357 C10.9770718,31.5344995 11.3784206,31.5610911 11.7811168,31.5610911 C14.1176028,31.5610911 16.2703353,30.7776471 17.9770587,29.4568548 C15.7946054,29.4222743 13.9500175,28.0083544 13.3149051,26.0464725 C13.6216627,26.1103076 13.9324624,26.1368992 14.2527331,26.1368992 C14.7081341,26.1368992 15.150022,26.0770586 15.5703129,25.9693226 C13.2851843,25.5117493 11.5662557,23.5272702 11.5662557,21.1530093 C11.5662557,21.1330371 11.5662557,21.107777 11.567603,21.0865113 C12.2378651,21.4602773 13.0054528,21.6717548 13.8257055,21.6983464 C12.4851813,20.8231441 11.6040605,19.3148031 11.6040605,17.6122559 C11.6040605,16.7144565 11.852724,15.8724652 12.2810989,15.1475683 C14.7405495,18.1176865 18.4216413,20.072949 22.5649104,20.2737746 C22.4824849,19.9173178 22.4351695,19.5435517 22.4351695,19.1551774 C22.4351695,16.4431004 24.6703275,14.2431115 27.4270647,14.2431115 C28.8622198,14.2431115 30.1608575,14.8443327 31.0689648,15.8006793 C32.2095279,15.5732241 33.2784441,15.171535 34.2419508,14.6102201 C33.8689754,15.755447 33.0784434,16.7144565 32.0432899,17.3222971 C33.054112,17.2052408 34.014924,16.9405422 34.9122129,16.5508364 C34.2419905,17.5324811 33.3973667,18.398401 32.4230416,19.0927119 L32.4230416,19.0927119 Z" id="形状"></path>
            </g>
        </g>
    </g>
</svg>