<?xml version="1.0" encoding="UTF-8"?>
<svg width="44px" height="44px" viewBox="0 0 44 44" version="1.1" xmlns="http://www.w3.org/2000/svg" xmlns:xlink="http://www.w3.org/1999/xlink">
    <!-- Generator: Sketch 54.1 (76490) - https://sketchapp.com -->
    <title>形状2X</title>
    <desc>Created with Sketch.</desc>
    <g id="视觉稿" stroke="none" stroke-width="1" fill="none" fill-rule="evenodd">
        <g id="B端查询页面" transform="translate(-57.000000, -563.000000)" fill="#00BC3E" fill-rule="nonzero">
            <g id="微信" transform="translate(57.000000, 563.000000)">
                <path d="M22,44 L22,44 C9.84972656,43.9999995 0,34.1502734 0,22 C5.31106641e-07,9.84972656 9.84972656,0 22,0 C34.1502734,5.31106641e-07 44,9.84972656 44,22 L44,22 C44,34.1502734 34.1502734,44 22,44 C22,44 22,44 22,44 L22,44 Z M18.9933343,10.6780972 C13.5536839,10.6780972 9.14451726,14.6576528 9.14451726,19.5642639 L9.14451709,19.5642508 C9.18073912,22.2938447 10.5158457,24.8427087 12.7391096,26.4267231 L11.9618527,29.4170425 L11.9618527,29.4170425 C11.9401431,29.4986095 11.969031,29.5852732 12.0353388,29.6375009 L12.0353388,29.6375008 C12.1007873,29.6872029 12.18932,29.6938427 12.2614499,29.6544592 L15.3523888,27.8173064 L15.3523891,27.8173066 C16.6602829,28.2854714 18.046291,28.496607 19.43426,28.4391121 L19.4342601,28.4391125 C19.225806,27.7576172 19.1196954,27.0489443 19.1194004,26.3362792 C19.1194004,21.8705847 23.2408406,18.252807 28.3226967,18.252807 C28.4606245,18.252807 28.597987,18.252807 28.7347842,18.2584597 C28.0378055,13.9680102 23.9423769,10.6780847 18.9933699,10.6780847 L18.9933343,10.6780972 Z M15.1850579,17.9758333 L15.1850579,17.9758333 C14.4777982,17.991441 13.8917995,17.4307466 13.8761881,16.7234869 C13.8605805,16.0162273 14.4212749,15.4302285 15.1285345,15.4146171 C15.8357942,15.3990095 16.4217929,15.9597039 16.4374043,16.6669636 C16.4376348,16.6774086 16.4377375,16.6878561 16.4377124,16.6983036 L16.4377124,16.6983078 C16.4446118,17.3969646 15.8838329,17.968933 15.1851761,17.9758311 C15.1851353,17.9758315 15.1850946,17.9758319 15.1850538,17.9758323 L15.1850579,17.9758333 Z M22.8784885,17.9758333 L22.8784884,17.9758333 C22.1712288,17.991441 21.58523,17.4307466 21.5696186,16.7234869 C21.554011,16.0162273 22.1147054,15.4302285 22.8219651,15.4146171 C23.5292247,15.3990095 24.1152235,15.9597039 24.1308348,16.6669636 C24.1310653,16.6774086 24.131168,16.6878561 24.1311429,16.6983036 L24.1311429,16.698306 C24.1383525,17.3966493 23.5780805,17.9686088 22.8797372,17.9758206 C22.8793195,17.9758249 22.8789018,17.975829 22.8784841,17.9758329 L22.8784885,17.9758333 Z M36.8634607,26.3362917 C36.8634607,22.1928056 33.0393565,18.8350556 28.3237917,18.8350556 C23.6082268,18.8350556 19.7846967,22.1928056 19.7846967,26.3362917 C19.7846967,30.4797778 23.6082356,33.8375278 28.3243658,33.8375278 L28.324366,33.8375278 C29.5457678,33.839847 30.7560629,33.6056579 31.8884424,33.1478889 L34.3756646,34.5610833 L34.3756646,34.5610833 C34.4516838,34.6051262 34.5472816,34.5960434 34.6136465,34.5384722 L34.6136465,34.5384722 C34.6812188,34.4821604 34.7089687,34.3911405 34.6843062,34.3067083 L33.9873187,31.9438472 L33.9873188,31.9438472 C35.7658063,30.6235614 36.8288288,28.5510102 36.8634521,26.3362916 L36.8634607,26.3362917 Z M25.3091829,24.6969861 L25.309183,24.6969861 C24.6443589,24.7110282 24.0940256,24.1834622 24.0799864,23.5186381 C24.0659443,22.853814 24.5935104,22.3034808 25.2583345,22.2894416 C25.9231585,22.2753994 26.4734918,22.8029655 26.487531,23.4677896 C26.4877479,23.478058 26.4878334,23.4883287 26.4877874,23.4985993 L26.4877874,23.4985987 C26.4940481,24.1541752 25.9676745,24.6907033 25.3120936,24.6969655 C25.3111234,24.6969748 25.3101533,24.6969829 25.3091832,24.6969898 L25.3091829,24.6969861 Z M31.4051297,24.6969861 L31.4051297,24.6969861 C30.7400142,24.7119635 30.1886873,24.1849195 30.1737074,23.519804 C30.1587301,22.8546884 30.685774,22.3033615 31.3508895,22.2883817 C32.0160051,22.2734043 32.567332,22.8004483 32.5823119,23.4655638 C32.5825597,23.4765725 32.5826567,23.4875841 32.5826026,23.4985954 L32.5826026,23.4985959 C32.5888675,24.1541724 32.0624941,24.6907049 31.4069176,24.6969671 C31.4063214,24.6969728 31.4057253,24.6969781 31.4051291,24.6969829 L31.4051297,24.6969861 Z" id="形状"></path>
            </g>
        </g>
    </g>
</svg>