<?xml version="1.0" encoding="UTF-8"?>
<svg width="44px" height="44px" viewBox="0 0 44 44" version="1.1" xmlns="http://www.w3.org/2000/svg" xmlns:xlink="http://www.w3.org/1999/xlink">
    <!-- Generator: Sketch 54.1 (76490) - https://sketchapp.com -->
    <title>eos2X</title>
    <desc>Created with Sketch.</desc>
    <g id="视觉稿" stroke="none" stroke-width="1" fill="none" fill-rule="evenodd">
        <g id="B端查询页面" transform="translate(-57.000000, -758.000000)" fill-rule="nonzero">
            <g id="eos" transform="translate(57.000000, 758.000000)">
                <path d="M0,22.0000264 L2.51576746e-13,22.0000297 C1.83464346e-06,34.1503176 9.84973833,44.000056 22.0000263,44.000056 C34.1503142,44.0000541 44.0000526,34.1503176 44.0000526,22.0000297 L44.0000526,22.0000297 C44.0000526,9.84974174 34.1503142,3.41418459e-06 22.0000263,3.41418459e-06 C9.84973833,3.41418459e-06 2.54019331e-13,9.84974174 2.54019331e-13,22.0000297 L0,22.0000264 Z" id="路径" fill="#FFAA08"></path>
                <g id="EOS" transform="translate(11.000000, 7.333333)">
                    <path d="M11.3574734,0 L10.6783632,0 L3.72693664,9.72047355 L3.70475337,9.7155083 L3.69618256,9.75523026 L3.69618256,9.75523026 C3.69464487,9.76272194 3.6915556,9.76982105 3.68710761,9.77608435 L3.67147849,9.79743498 L3.68509095,9.80686896 L0.481612218,24.6460533 L0.481612217,24.6460533 C0.480263671,24.6518047 0.478054845,24.6573268 0.475058074,24.6624387 L0.327841867,24.9136808 L0.327841866,24.9136808 C0.311843347,24.9403633 0.320837218,24.9747665 0.347930221,24.9905226 C0.348290111,24.9907319 0.348652327,24.9909373 0.349016808,24.9911387 L0.349016808,25.0105032 C0.338933526,25.0174546 0.349016808,25.0199372 0.342462665,25.0288747 L0.342462661,25.0288747 C0.321498599,25.044554 0.309187307,25.0689873 0.309187937,25.0949126 L0.309187937,25.5874657 L0.309187937,25.5874656 C0.309350121,25.6169008 0.325252659,25.6440726 0.351033504,25.6589654 L10.9757912,31.7662331 L10.9757912,31.7662331 C11.0018501,31.7816658 11.0344318,31.7816659 11.060491,31.7662331 L21.6580236,25.6753508 L21.6580236,25.6753508 C21.7017047,25.6503957 21.7285954,25.6044283 21.7286067,25.554695 L21.7286067,25.5462541 L21.7286067,25.113781 L21.7286067,25.094913 L21.7286067,25.0949105 C21.7286067,25.0770314 21.7227737,25.0596254 21.7119678,25.0452583 L21.7119678,25.0422792 L21.6161766,24.878922 L21.6161766,24.878922 C21.6131944,24.8738544 21.6111462,24.8683071 21.6101266,24.8625366 L18.3608002,9.80785895 L18.375421,9.79743191 L18.3512211,9.7636683 L18.3471878,9.74529684 L18.3391211,9.74529684 L11.3725695,-3.12850684e-06 L11.3574734,0 Z" id="形状" fill="#FFC508"></path>
                    <path d="M10.6783344,7.27311319 L10.671276,7.26914099 L6.18926067,14.9156466 L6.18926067,14.9156466 C6.1730608,14.9428488 6.13753721,14.9519668 6.10991641,14.9360125 C6.09746215,14.9288185 6.08818144,14.917307 6.08389006,14.90373 L4.50282786,9.86151563 L4.50282786,9.86151563 C4.49757403,9.84462687 4.50055238,9.82629439 4.5108945,9.81186311 L10.5734742,1.32970024 L10.5734742,1.32970024 C10.5914291,1.30392043 10.6272046,1.2973567 10.6533809,1.31503941 C10.6692297,1.32574567 10.6785961,1.34354501 10.6783404,1.3624709 L10.6783344,7.27311319 Z" id="路径" fill="#FFFFFF"></path>
                    <path d="M11.0312483,8.19417019 L15.5944346,15.9777177 L15.5944346,15.9777177 C15.6023922,15.9914427 15.6042176,16.0078021 15.5994763,16.0229014 L12.8028731,24.9405197 L12.8028731,24.9405197 C12.7954061,24.9642836 12.7731769,24.9805523 12.7479192,24.9807381 L9.28583417,24.9807381 L9.28583417,24.9807381 C9.26052227,24.9807121 9.23820738,24.9643807 9.23088026,24.9405197 L6.41209375,15.9429604 L6.41209375,15.9429604 C6.40709587,15.9278861 6.40893293,15.9114221 6.41713539,15.8977766 L10.9314175,8.1926806 L10.9314175,8.1926806 C10.9471562,8.16553245 10.9822615,8.15608988 11.0098274,8.17159034 C11.0187518,8.17660854 11.0261468,8.18389146 11.0312422,8.1926806 L11.0312483,8.19417019 Z" id="路径" fill="#FFFFFF"></path>
                    <path d="M16.1464977,16.9196319 L20.8221133,24.8953359 L20.8221133,24.8953359 C20.8379845,24.9227253 20.8283056,24.9576002 20.8004948,24.9732309 C20.7917232,24.9781609 20.7817962,24.9807488 20.7716968,24.9807384 L13.5954117,24.9807384 L13.5954117,24.9807384 C13.5633917,24.9805031 13.5376281,24.9547484 13.537867,24.9232134 C13.5379092,24.9176324 13.5387821,24.9120876 13.5404578,24.906756 L16.0416189,16.9315486 L16.0416189,16.9315486 C16.0507587,16.901611 16.0828106,16.8846387 16.1132088,16.8936402 C16.1272637,16.897802 16.1391696,16.9071016 16.1464854,16.919632 L16.1464977,16.9196319 Z" id="路径" fill="#FFFFFF"></path>
                    <path d="M12.5528251,25.738441 L11.0725963,30.4584086 L11.0725963,30.4584086 C11.0628121,30.488436 11.030164,30.5049668 10.9996745,30.4953307 C10.9818612,30.4897009 10.9679006,30.475952 10.9621843,30.4584086 L9.48195555,25.738441 L9.48195555,25.738441 C9.4724876,25.7083154 9.48960969,25.6763347 9.52019884,25.6670102 C9.52561252,25.6653599 9.53124262,25.6645003 9.53690952,25.6644586 L12.4973639,25.6644586 L12.4973639,25.6644586 C12.5293848,25.6644199 12.5553746,25.6899533 12.555414,25.7214889 C12.5554212,25.7272358 12.5545474,25.7329509 12.5528221,25.7384409 L12.5528251,25.738441 Z" id="路径" fill="#FFFFFF"></path>
                    <path d="M8.43885177,24.9807419 L1.19047068,24.9807419 L1.19047068,24.9807419 C1.15845008,24.9806137 1.13259764,24.9549452 1.13272778,24.9234096 C1.13274399,24.9194818 1.13317168,24.915566 1.13400406,24.9117246 L1.13400406,24.9117246 C1.13543619,24.9059992 1.13764049,24.9004884 1.1405582,24.8953393 L5.86306136,16.8396943 L5.86306136,16.8396943 C5.87888376,16.8125933 5.91401786,16.8032559 5.94153594,16.8188385 C5.95425919,16.8260434 5.96370177,16.8377689 5.96792767,16.851611 L8.49429718,24.9067594 L8.49429718,24.9067594 C8.50376424,24.9368854 8.48664118,24.9688655 8.45605168,24.9781891 C8.45047723,24.9798882 8.44467426,24.9807487 8.43883897,24.9807417 L8.43885177,24.9807419 Z" id="路径" fill="#FFFFFF"></path>
                    <path d="M8.74437555,25.7046771 L10.2669544,30.5597003 L10.2669544,30.5597003 C10.2764107,30.5895424 10.2595127,30.6212838 10.2292115,30.6305968 C10.2136565,30.6353776 10.1967721,30.6334311 10.1827587,30.6252416 L1.73748459,25.7697219 L1.73748459,25.7697219 C1.70991846,25.7536762 1.70077932,25.7186604 1.71707183,25.6915121 C1.72745686,25.6742074 1.74631587,25.6635551 1.76672601,25.6634654 L8.68941505,25.6634654 L8.68941505,25.6634654 C8.71494954,25.6637849 8.73726525,25.6805201 8.74436896,25.7046769 L8.74437555,25.7046771 Z" id="路径" fill="#FFFFFF"></path>
                    <path d="M13.3453744,25.6644586 L20.2736093,25.6644586 L20.2736093,25.6644586 C20.3056299,25.6645993 20.3314719,25.6902778 20.3313292,25.7218132 C20.3312381,25.7419143 20.3204219,25.7604875 20.302851,25.7707151 L11.8505185,30.629214 L11.8505185,30.629214 C11.8232856,30.645275 11.7879888,30.636553 11.7716806,30.6097328 C11.7631506,30.5957044 11.7611971,30.5787286 11.766323,30.5631761 L13.2899101,25.7046772 L13.2899101,25.7046772 C13.297571,25.6808359 13.3199772,25.6645866 13.3453682,25.6644587 L13.3453744,25.6644586 Z" id="路径" fill="#FFFFFF"></path>
                    <path d="M16.3673372,15.8918496 L17.8384909,11.2016738 L17.8384909,11.2016738 C17.8475552,11.1717139 17.8795641,11.1546634 17.909985,11.1635904 C17.9303514,11.1695669 17.9457071,11.1861234 17.9499116,11.2066391 L20.4107393,22.6028958 L20.4107393,22.6028958 C20.4171588,22.6337913 20.3969318,22.6639623 20.3655609,22.6702846 C20.3412051,22.6751931 20.3163825,22.6642632 20.3038562,22.6431145 L16.3723914,15.9385231 L16.3723914,15.9385231 C16.3639958,15.9243962 16.3621599,15.9074001 16.3673498,15.8918498 L16.3673372,15.8918496 Z" id="路径" fill="#FFFFFF"></path>
                    <path d="M17.534478,9.85161318 L15.9256866,14.9832027 L15.9256866,14.9832027 C15.9161694,15.0133133 15.883669,15.0301243 15.8530954,15.0207514 C15.8393096,15.0165251 15.8276209,15.007385 15.8203163,14.9951195 L11.4189677,7.48714525 L11.4189677,7.48714525 C11.4129799,7.47714631 11.404903,7.46851473 11.395272,7.46182242 L11.395272,7.46182242 C11.3806828,7.45130393 11.372216,7.43444164 11.3725846,7.41663865 L11.3725846,1.37193348 L11.3725846,1.37193409 C11.3726536,1.34039834 11.3986676,1.31488888 11.4306883,1.31495684 C11.4494977,1.31499679 11.4671184,1.3240206 11.4779546,1.33916226 L17.5279301,9.80245705 L17.5279301,9.80245705 C17.5377456,9.81695155 17.5401673,9.83511434 17.5344842,9.85161304 L17.534478,9.85161318 Z" id="路径" fill="#FFFFFF"></path>
                    <path d="M4.20133389,11.2175565 L5.6422376,15.8119023 L5.64223759,15.8119023 C5.646827,15.8270697 5.64481863,15.8434328 5.63669179,15.8570861 L1.78589382,22.4266217 L1.78589382,22.4266217 C1.7707134,22.4540765 1.73580827,22.4642133 1.70793097,22.4492629 C1.68513054,22.4370351 1.67348437,22.4112723 1.67951487,22.3864031 L4.08942174,11.2215285 L4.08942174,11.2215285 C4.09660001,11.1907954 4.1277164,11.1716122 4.15892246,11.1786818 C4.17909636,11.1832521 4.19526567,11.1980686 4.20134624,11.2175563 L4.20133389,11.2175565 Z" id="路径" fill="#FFFFFF"></path>
                </g>
            </g>
        </g>
    </g>
</svg>