<?xml version="1.0" encoding="UTF-8"?>
<svg width="690px" height="305px" viewBox="0 0 690 305" version="1.1" xmlns="http://www.w3.org/2000/svg" xmlns:xlink="http://www.w3.org/1999/xlink">
    <!-- Generator: Sketch 54.1 (76490) - https://sketchapp.com -->
    <title>EPRA-logo2X</title>
    <desc>Created with Sketch.</desc>
    <defs>
        <linearGradient x1="1.6014351%" y1="44.1185946%" x2="97.4961558%" y2="58.3496052%" id="linearGradient-1">
            <stop stop-color="#F62F10" offset="0.0607052365%"></stop>
            <stop stop-color="#FF6D16" offset="100%"></stop>
        </linearGradient>
        <rect id="path-2" x="0" y="0" width="690" height="305" rx="10"></rect>
        <linearGradient x1="48.9678608%" y1="50.5279886%" x2="11.1234801%" y2="49.6668548%" id="linearGradient-4">
            <stop stop-color="#FFD342" stop-opacity="0" offset="0%"></stop>
            <stop stop-color="#FFFFFF" stop-opacity="0.301846591" offset="100%"></stop>
        </linearGradient>
        <linearGradient x1="50%" y1="49.7895756%" x2="2.16347407%" y2="49.0014069%" id="linearGradient-5">
            <stop stop-color="#FFD342" stop-opacity="0" offset="0%"></stop>
            <stop stop-color="#FFFFFF" stop-opacity="0.4" offset="100%"></stop>
        </linearGradient>
        <linearGradient x1="50%" y1="-2.48949813e-15%" x2="50%" y2="100%" id="linearGradient-6">
            <stop stop-color="#FF7615" stop-opacity="0" offset="0%"></stop>
            <stop stop-color="#FF9B26" offset="100%"></stop>
        </linearGradient>
        <linearGradient x1="50%" y1="50%" x2="50%" y2="100%" id="linearGradient-7">
            <stop stop-color="#FF7615" stop-opacity="0" offset="0%"></stop>
            <stop stop-color="#FF9B26" offset="100%"></stop>
        </linearGradient>
        <linearGradient x1="50%" y1="60.6381393%" x2="50%" y2="100%" id="linearGradient-8">
            <stop stop-color="#FF7615" stop-opacity="0" offset="0%"></stop>
            <stop stop-color="#FF9B26" offset="100%"></stop>
        </linearGradient>
        <linearGradient x1="83.8010124%" y1="7.43350945%" x2="50%" y2="100%" id="linearGradient-9">
            <stop stop-color="#EF0A00" offset="0%"></stop>
            <stop stop-color="#F5520F" stop-opacity="0.389696241" offset="100%"></stop>
        </linearGradient>
        <linearGradient x1="100.380144%" y1="4.93907619%" x2="50%" y2="100%" id="linearGradient-10">
            <stop stop-color="#F94511" stop-opacity="0.502950175" offset="0%"></stop>
            <stop stop-color="#D72800" stop-opacity="0.9" offset="100%"></stop>
        </linearGradient>
        <linearGradient x1="100%" y1="65.1333656%" x2="0%" y2="39.7953412%" id="linearGradient-11">
            <stop stop-color="#FFD342" stop-opacity="0.283271416" offset="0%"></stop>
            <stop stop-color="#FFE091" offset="100%"></stop>
        </linearGradient>
        <linearGradient x1="100%" y1="65.0567087%" x2="0%" y2="39.8470321%" id="linearGradient-12">
            <stop stop-color="#FFE091" offset="0%"></stop>
            <stop stop-color="#FFD342" stop-opacity="0.283271416" offset="100%"></stop>
        </linearGradient>
    </defs>
    <g id="视觉稿" stroke="none" stroke-width="1" fill="none" fill-rule="evenodd">
        <g id="B端查询页面" transform="translate(-30.000000, -152.000000)">
            <g id="EPRA-logo" transform="translate(30.000000, 152.000000)">
                <mask id="mask-3" fill="white">
                    <use xlink:href="#path-2"></use>
                </mask>
                <use id="蒙版" fill="url(#linearGradient-1)" fill-rule="nonzero" xlink:href="#path-2"></use>
                <path d="M174.363657,237.193321 C239.080132,194.013043 336.878316,239.352561 380.120986,256.013043 C423.363657,272.673525 485.450365,181.434787 604.665915,214.013043 C723.881466,246.5913 842.841105,177.385578 889.363657,185.699311 C920.378691,191.241799 949.08224,214.67971 975.474304,256.013043 L954.621162,339.100218 L35,331.502683 C84.7647873,297.416627 131.21934,265.980173 174.363657,237.193321 Z" id="路径-2" fill="url(#linearGradient-4)" opacity="0.426502046" mask="url(#mask-3)"></path>
                <path d="M14.3636566,262.193321 C79.0801322,219.013043 176.878316,264.352561 220.120986,281.013043 C263.363657,297.673525 325.450365,206.434787 444.665915,239.013043 C563.881466,271.5913 682.841105,202.385578 729.363657,210.699311 C760.378691,216.241799 789.08224,239.67971 815.474304,281.013043 L794.621162,364.100218 L-81,325.514192 C-60.568546,312.08713 -28.7806605,290.980173 14.3636566,262.193321 Z" id="路径-2" fill="url(#linearGradient-5)" mask="url(#mask-3)"></path>
                <path d="M433.132189,146.717711 L467.132189,146.717711 L467.132189,345.717711 C467.132189,355.106552 459.52103,362.717711 450.132189,362.717711 L450.132189,362.717711 C440.743348,362.717711 433.132189,355.106552 433.132189,345.717711 L433.132189,146.717711 Z" id="矩形" fill="url(#linearGradient-6)" mask="url(#mask-3)" transform="translate(450.132189, 254.717711) rotate(50.000000) translate(-450.132189, -254.717711) "></path>
                <path d="M558.757302,117.07659 L581.757302,117.07659 L581.757302,345.921236 C581.757302,360.79368 576.869662,375.253973 567.846618,387.07659 C567.846618,387.07659 567.846618,387.07659 567.846618,387.07659 C567.846618,387.07659 567.846618,387.07659 567.846618,387.07659 L567.846618,387.07659 C561.868845,375.089404 558.757302,361.877492 558.757302,348.482477 L558.757302,117.07659 Z" id="矩形复制" fill="url(#linearGradient-7)" mask="url(#mask-3)" transform="translate(570.257302, 252.076590) rotate(50.000000) translate(-570.257302, -252.076590) "></path>
                <path d="M651.154902,175.910639 L674.154902,175.910639 L674.154902,337.410639 C674.154902,343.761914 669.006176,348.910639 662.654902,348.910639 L662.654902,348.910639 C656.303627,348.910639 651.154902,343.761914 651.154902,337.410639 L651.154902,175.910639 Z" id="矩形复制-2" fill="url(#linearGradient-8)" mask="url(#mask-3)" transform="translate(662.654902, 262.410639) rotate(50.000000) translate(-662.654902, -262.410639) "></path>
                <circle id="椭圆形" stroke="url(#linearGradient-9)" stroke-width="14" opacity="0.429999977" fill-rule="nonzero" mask="url(#mask-3)" cx="589.03156" cy="101.03156" r="145.03156"></circle>
                <path d="M539.517809,74.222419 C536.486977,75.8384078 533.11131,76.6770823 529.686344,76.6650172 C520.482148,76.6601721 512.323338,70.6636557 509.462684,61.8011441 L539.368281,61.8011441 C539.368281,57.0106219 539.16268,52.5419925 538.938389,48.4141908 L509.462684,48.4141908 C511.284103,42.6504948 515.416054,37.9295796 520.846553,35.4076754 C526.277052,32.8857712 532.504553,32.7957943 538.003839,35.1597816 C537.515165,30.3984977 536.665328,25.6823993 535.461863,21.0533033 C533.554752,20.7129695 531.62278,20.5356198 529.686344,20.5231269 C516.314923,20.4781785 504.154876,28.3646531 498.598155,40.6855659 C493.041434,53.0064786 495.116434,67.4815713 503.903068,77.6923636 C512.689702,87.9031559 526.561809,91.9599142 539.368281,88.0638091 C539.461736,83.1975475 539.499118,78.5774391 539.517809,74.222419 Z M605.394921,136.522687 C623.484969,136.522687 638.430569,130.195424 651.557693,117.578785 C664.04485,105.513124 670.913777,88.7722738 670.500152,71.412495 C670.728716,55.7484323 664.509598,40.6789362 653.300399,29.7359101 C642.057781,18.4281015 626.678461,12.2129314 610.736695,12.5348469 C596.21186,12.6750106 582.108072,17.4319189 570.465028,26.1176248 C569.555789,16.6456736 565.028542,12.5348469 556.883285,12.5348469 C553.049283,12.7996515 549.246078,13.4018716 545.517809,14.3345176 C550.045057,23.8064687 551.863533,41.954727 551.863533,70.0106462 C551.863533,85.4120387 551.408914,104.867426 550.499676,128.86935 C549.590438,152.871275 549.154762,168.253723 549.154762,175.490294 C549.026226,178.98664 549.325205,182.485598 550.045057,185.90944 C550.630653,187.457954 551.563852,188.851379 552.772771,189.982379 C554.55901,191.405206 556.825367,192.083807 559.099552,191.876769 C565.345149,191.577716 571.415626,189.714745 576.753924,186.458813 C572.226676,177.858282 570.427143,162.456889 570.427143,141.182887 C570.427143,136.655294 570.427143,131.710936 570.881762,126.255092 C575.005096,129.434914 579.644006,131.882702 584.596102,133.491663 C584.596102,134.855624 584.501389,136.181697 584.444562,137.564602 C583.554266,161.547582 583.099647,176.948974 583.099647,184.185545 C582.964048,187.682998 583.269532,191.183604 584.008885,194.604691 C584.579701,196.156112 585.507647,197.551381 586.717657,198.67763 C588.519548,200.063215 590.783118,200.707094 593.044438,200.477301 C599.290035,200.178248 605.360512,198.315277 610.69881,195.059345 C606.171562,186.458813 604.372029,171.057421 604.372029,149.783419 C604.372029,145.767311 604.372029,141.372326 604.712993,136.63635 L605.394921,136.522687 Z M637.597101,41.4621856 C645.742358,49.6080635 649.37931,60.4060878 649.37931,74.0646413 C649.710607,86.1921525 645.134653,97.9402735 636.687863,106.648153 C628.618376,115.172909 617.859059,119.245848 604.883475,119.30268 C604.883475,93.122207 605.224439,42.0115587 604.561453,34.6802686 C604.406793,32.8983197 604.057432,31.1386732 603.519618,29.4328076 C604.76982,29.3191442 606.038965,29.2433686 607.30811,29.2433686 C619.86696,29.2433686 629.830693,33.3163076 637.521331,41.4621856 L637.597101,41.4621856 Z M571.525805,108.466768 L572.416101,41.9168392 C575.92205,39.5789501 579.572633,37.4656265 583.345899,35.5895759 C585.240145,45.838227 585.997844,60.0082658 585.997844,78.57329 C585.997844,89.0050655 585.789477,101.375434 585.372742,115.684395 C580.47699,113.80581 575.806988,111.384849 571.450035,108.466768 L571.525805,108.466768 Z" id="形状结合" fill="url(#linearGradient-10)" fill-rule="nonzero" opacity="0.429999977" mask="url(#mask-3)"></path>
                <path d="M117.573407,62.7633305 C115.281876,75.4032382 104.032414,85 90.5,85 C84.9999846,85 79.8770845,83.4147347 75.5794417,80.6841981 C70.1620954,83.4425665 64.0152585,85 57.5,85 C35.6847524,85 18,67.5391052 18,46 C18,24.4608948 35.6847524,7 57.5,7 C74.0190162,7 88.1696589,17.0118552 94.0669098,31.2250411 C98.6134858,31.803186 102.811724,33.4715688 106.380728,35.9544005 C109.565373,31.7375847 114.703585,29 120.5,29 C130.164983,29 138,36.6111593 138,46 C138,55.3888407 130.164983,63 120.5,63 C119.502789,63 118.525059,62.9189743 117.573407,62.7633305 Z" id="形状结合" fill="url(#linearGradient-11)" opacity="0.281110491" mask="url(#mask-3)"></path>
                <path d="M415.305317,25.5102642 C411.734467,44.5672013 394.823268,59 374.5,59 C366.299415,59 358.654376,56.6500796 352.217155,52.5946507 C344.048209,56.6904094 334.798393,59 325,59 C291.862915,59 265,32.5848002 265,0 C265,-32.5848002 291.862915,-59 325,-59 C350.002554,-59 371.433232,-43.9618622 380.448209,-22.582014 C387.464168,-21.5871645 393.91344,-18.8585427 399.336951,-14.849698 C404.173975,-21.0151009 411.853376,-25 420.5,-25 C435.135546,-25 447,-13.5832611 447,0.5 C447,14.5832611 435.135546,26 420.5,26 C418.722113,26 416.985118,25.8315262 415.305317,25.5102642 Z" id="形状结合复制" fill="url(#linearGradient-12)" opacity="0.281110491" mask="url(#mask-3)" transform="translate(356.000000, 0.000000) scale(1, -1) translate(-356.000000, -0.000000) "></path>
            </g>
        </g>
    </g>
</svg>